<svg width="20" height="20" viewBox="0 0 20 20" fill="none" xmlns="http://www.w3.org/2000/svg">
<g clip-path="url(#clip0_26823_50551)">
<mask id="mask0_26823_50551" style="mask-type:luminance" maskUnits="userSpaceOnUse" x="0" y="0" width="20" height="20">
<path d="M0 0H20V20H0V0Z" fill="white"/>
</mask>
<g mask="url(#mask0_26823_50551)">
<path d="M6.0898 13.2632C5.77502 13.1215 5.40502 13.262 5.26338 13.5767C5.12175 13.8915 5.26211 14.2615 5.57689 14.4031L7.24356 15.153C7.55833 15.2947 7.92833 15.1543 8.06997 14.8395C8.21161 14.5247 8.07124 14.1548 7.75647 14.0131L6.0898 13.2632Z" fill="#AFAFAF"/>
<path fill-rule="evenodd" clip-rule="evenodd" d="M11.4933 1.38001C10.5464 0.939739 9.4536 0.939739 8.50677 1.38L3.09009 3.89865C1.84074 4.47956 1.04169 5.73231 1.04169 7.11011V12.9556C1.04169 14.344 1.85289 15.6043 3.11659 16.1793L8.53327 18.6439C9.4651 19.0679 10.5349 19.0679 11.4668 18.6439L16.8834 16.1793C18.1472 15.6043 18.9584 14.344 18.9584 12.9556V7.11011C18.9584 5.73231 18.1593 4.47956 16.9099 3.89865L11.4933 1.38001ZM9.03377 2.51346C9.64644 2.22859 10.3536 2.22859 10.9663 2.51346L16.3829 5.03211C16.7726 5.21331 17.0946 5.49555 17.3236 5.83917L14.8408 7.01526L7.28502 3.32661L9.03377 2.51346ZM5.82568 4.00517L3.61712 5.03211C3.22741 5.21331 2.90542 5.49555 2.67641 5.83916L10 9.30821L13.3947 7.70026L5.82568 4.00517ZM2.29274 7.04056L9.37535 10.3955L9.37585 17.6253C9.26544 17.594 9.15685 17.5543 9.05094 17.5061L3.63427 15.0415C2.81658 14.6695 2.29169 13.854 2.29169 12.9556V7.11011C2.29169 7.08687 2.29204 7.06369 2.29274 7.04056ZM10.6259 17.6248C10.7357 17.5936 10.8438 17.5541 10.9491 17.5061L16.3658 15.0415C17.1834 14.6695 17.7084 13.854 17.7084 12.9556V7.11011C17.7084 7.08688 17.708 7.0637 17.7073 7.04058L10.6254 10.3951L10.6259 17.6248Z" fill="#AFAFAF"/>
</g>
</g>
<defs>
<clipPath id="clip0_26823_50551">
<rect width="20" height="20" fill="white"/>
</clipPath>
</defs>
</svg>
