<svg width="45" height="45" viewBox="0 0 45 45" fill="none" xmlns="http://www.w3.org/2000/svg">
<g clip-path="url(#clip0_24530_50856)">
<path d="M39.279 15.4053H4.01195C3.14131 15.4053 2.43555 16.111 2.43555 16.9817V21.2163H40.8555V16.9817C40.8554 16.1111 40.1497 15.4053 39.279 15.4053Z" fill="#FFB125"/>
<path d="M26.4755 6.65032L23.2817 38.9822C23.2015 39.7944 22.4781 40.3877 21.6659 40.3075L5.48345 38.709C4.67125 38.6287 4.0779 37.9053 4.15815 37.0931L7.35192 4.76128C7.43216 3.94908 8.15559 3.35574 8.96779 3.43598L25.1502 5.03453C25.9623 5.11469 26.5557 5.83812 26.4755 6.65032Z" fill="#B6FA4C"/>
<path d="M25.1502 5.03453L8.96782 3.43598C8.15562 3.35574 7.4322 3.94908 7.35195 4.76128L7.06543 7.66202C7.30818 7.53871 7.58724 7.47974 7.87824 7.50848L24.0607 9.10703C24.8729 9.18728 25.4662 9.91071 25.386 10.7229L22.4787 40.1541C22.9133 39.9334 23.2303 39.5035 23.2817 38.9824L26.4755 6.65049C26.5558 5.83821 25.9624 5.11478 25.1502 5.03453Z" fill="#A8E83A"/>
<path d="M9.06717 9.34582L6.73728 32.9328C6.70397 33.2703 6.86288 33.5994 7.15081 33.7789C7.9442 34.2735 8.55855 35.0156 8.89614 35.8869C9.01752 36.2 9.30738 36.416 9.64154 36.449L18.0304 37.2776C18.3646 37.3107 18.6912 37.1556 18.8714 36.8722C19.3729 36.0839 20.1206 35.4763 20.9954 35.1465C21.3129 35.0268 21.5331 34.7352 21.5665 34.3976L23.8963 10.8107C23.9297 10.4731 23.7708 10.144 23.4828 9.96457C22.6894 9.46992 22.0751 8.72786 21.7375 7.8566C21.6161 7.54353 21.3263 7.3275 20.9921 7.29445L12.6032 6.46582C12.269 6.43277 11.9424 6.5879 11.7623 6.87126C11.2607 7.65955 10.5131 8.26714 9.6382 8.59699C9.32083 8.7167 9.10057 9.00823 9.06717 9.34582Z" fill="#77DD00"/>
<path d="M23.4829 9.96457C22.6895 9.46992 22.0752 8.72786 21.7376 7.8566C21.6162 7.54345 21.3264 7.3275 20.9922 7.29445L12.6033 6.46582C12.2691 6.43277 11.9425 6.5879 11.7623 6.87126C11.2608 7.65955 10.5131 8.26714 9.63822 8.59699C9.32076 8.7167 9.10051 9.00823 9.0672 9.34582L8.97852 10.2437L19.8482 11.2839C20.1824 11.3169 20.4723 11.5329 20.5936 11.846C20.9312 12.7172 21.5456 13.4594 22.3389 13.954C22.6269 14.1335 22.7858 14.4625 22.7525 14.8001L20.7317 35.257C20.8184 35.2177 20.9061 35.1803 20.9955 35.1466C21.3129 35.0268 21.5332 34.7353 21.5665 34.3977L23.8964 10.8108C23.9298 10.4731 23.7708 10.144 23.4829 9.96457Z" fill="#73CC00"/>
<path d="M40.1964 11.4674L21.9003 38.3152C21.4407 38.9896 20.5214 39.1638 19.847 38.7042L6.40938 29.5468C5.735 29.0872 5.5608 28.1679 6.02038 27.4935L24.3166 0.645713C24.7761 -0.0286721 25.6955 -0.202871 26.3699 0.256709L39.8075 9.41412C40.4818 9.8737 40.656 10.7929 40.1964 11.4674Z" fill="#B6FA4C"/>
<path d="M39.8076 9.41414L26.37 0.256732C25.6956 -0.202848 24.7763 -0.0287366 24.3167 0.645736L22.7517 2.94223C22.8875 2.98468 23.0195 3.04726 23.1433 3.13155L36.5809 12.289C37.2553 12.7485 37.4295 13.6679 36.9699 14.3423L20.2388 38.8936C20.8435 39.0828 21.5252 38.866 21.9005 38.3153L40.1966 11.4674C40.6561 10.793 40.482 9.87372 39.8076 9.41414Z" fill="#A8E83A"/>
<path d="M23.625 5.49141L10.2775 25.0776C10.0864 25.3579 10.0683 25.7229 10.2349 26.0184C10.6943 26.8327 10.8779 27.7784 10.7567 28.7049C10.7132 29.0378 10.8641 29.3664 11.1416 29.5554L18.1076 34.3026C18.3851 34.4917 18.7461 34.512 19.0401 34.3497C19.8581 33.8981 20.8054 33.7231 21.7313 33.8528C22.0673 33.8998 22.4003 33.7495 22.5914 33.4691L35.9389 13.883C36.13 13.6027 36.1481 13.2377 35.9813 12.9423C35.5219 12.1279 35.3383 11.1822 35.4595 10.2558C35.503 9.92286 35.3521 9.59432 35.0747 9.40527L28.1086 4.65803C27.8312 4.46889 27.4702 4.44859 27.1762 4.61092C26.3582 5.06251 25.4109 5.2375 24.485 5.10786C24.1491 5.06066 23.816 5.21104 23.625 5.49141Z" fill="#77DD00"/>
<path d="M35.9814 12.9422C35.522 12.1279 35.3385 11.1822 35.4596 10.2558C35.5031 9.92283 35.3522 9.59429 35.0748 9.40515L28.1087 4.658C27.8313 4.46895 27.4703 4.44856 27.1763 4.61089C26.3584 5.06248 25.411 5.23747 24.4851 5.10774C24.1491 5.06072 23.8161 5.21101 23.625 5.49138L23.0687 6.30762L31.7746 12.1761C32.0521 12.3652 32.2031 12.6937 32.1595 13.0266C32.0384 13.9531 32.222 14.8988 32.6813 15.7131C32.848 16.0085 32.8299 16.3736 32.6388 16.6538L20.9434 33.8162C21.2055 33.8046 21.4693 33.8161 21.7315 33.8528C22.0675 33.8999 22.4005 33.7495 22.5916 33.4692L35.939 13.883C36.1301 13.6026 36.1482 13.2377 35.9814 12.9422Z" fill="#73CC00"/>
<path d="M25.1524 22.4465C27.7926 22.4465 29.9328 20.3062 29.9328 17.6661C29.9328 15.026 27.7926 12.8857 25.1524 12.8857C22.5123 12.8857 20.3721 15.026 20.3721 17.6661C20.3721 20.3062 22.5123 22.4465 25.1524 22.4465Z" fill="#B6FA4C"/>
<path d="M39.825 45.0001H2.99768C1.74207 45.0001 0.724121 43.9822 0.724121 42.7266V20.2272C0.724121 18.9716 1.74198 17.9536 2.99768 17.9536H39.825C41.0806 17.9536 42.0985 18.9715 42.0985 20.2272V42.7266C42.0985 43.9822 41.0807 45.0001 39.825 45.0001Z" fill="#FFB125"/>
<path d="M39.8251 17.9536H35.689C36.9446 17.9536 37.9625 18.9716 37.9625 20.2272V42.7266C37.9625 43.9822 36.9446 45.0001 35.689 45.0001H39.8251C41.0807 45.0001 42.0987 43.9822 42.0987 42.7266V20.2272C42.0987 18.9716 41.0807 17.9536 39.8251 17.9536Z" fill="#FF901D"/>
<path d="M43.4521 27.1309H35.1633C32.7631 27.1309 30.8174 29.0766 30.8174 31.4768C30.8174 33.877 32.7631 35.8227 35.1633 35.8227H43.4521C43.907 35.8227 44.2758 35.4539 44.2758 34.999V27.9546C44.2758 27.4997 43.907 27.1309 43.4521 27.1309Z" fill="#FF6D3A"/>
<path d="M43.4522 27.1309H39.3014C39.7563 27.1309 40.1251 27.4996 40.1251 27.9546V33.8882C40.1251 34.3733 39.7318 34.7666 39.2466 34.7666H35.1633C32.942 34.7666 31.1111 33.0997 30.8504 30.9487C30.8294 31.1219 30.8174 31.2978 30.8174 31.4767C30.8174 33.8769 32.7631 35.8226 35.1633 35.8226H39.3013H43.4521C43.907 35.8226 44.2758 35.4538 44.2758 34.9989V33.9429V27.9546C44.2759 27.4997 43.9071 27.1309 43.4522 27.1309Z" fill="#ED5729"/>
<path d="M39.825 17.9536H2.99768C1.74207 17.9536 0.724121 18.9716 0.724121 20.2272V22.7187H42.0985V20.2272C42.0985 18.9716 41.0807 17.9536 39.825 17.9536Z" fill="#FF6D3A"/>
<path d="M41.7107 18.9561C41.6289 18.8352 41.5359 18.7225 41.433 18.6196C41.4318 18.6184 41.4306 18.6174 41.4293 18.6161C41.3275 18.5147 41.2161 18.4228 41.0965 18.342C41.0663 18.3216 41.0355 18.3018 41.0042 18.2829C40.9577 18.2546 40.9098 18.2285 40.8612 18.2036C40.8297 18.1874 40.7978 18.172 40.7655 18.1573C40.4789 18.0268 40.1607 17.9536 39.8253 17.9536H35.6895C36.945 17.9537 37.9627 18.9716 37.9627 20.2272V22.7186H42.0989V20.2272C42.0989 19.8347 41.9995 19.4656 41.8245 19.1435C41.7896 19.0791 41.7515 19.0166 41.7107 18.9561Z" fill="#ED5729"/>
<path d="M2.99768 44.9999H39.825C41.0806 44.9999 42.0985 43.982 42.0985 42.7264V40.2349H0.724121V42.7264C0.724121 43.982 1.74198 44.9999 2.99768 44.9999Z" fill="#FF6D3A"/>
<path d="M37.9624 40.2349V42.7264C37.9624 42.7277 37.9624 42.729 37.9624 42.7303C37.9621 42.9402 37.7863 43.1078 37.5763 43.1078H2.99768C1.74207 43.1078 0.724121 42.0899 0.724121 40.8343V42.7263C0.724121 43.9821 1.74198 44.9999 2.99768 44.9999H35.6889H39.8251C39.87 44.9999 39.9145 44.9983 39.9587 44.9957C39.9725 44.9949 39.9862 44.9936 39.9999 44.9926C40.0307 44.9902 40.0614 44.9874 40.0919 44.9838C40.107 44.982 40.1221 44.9801 40.1373 44.9781C40.1676 44.9739 40.1976 44.969 40.2275 44.9637C40.2408 44.9614 40.2542 44.9592 40.2673 44.9566C40.3096 44.9483 40.3516 44.9391 40.393 44.9284H40.3932C40.4114 44.9237 40.4291 44.9182 40.4472 44.9131C40.5371 44.8875 40.625 44.8573 40.71 44.8213C40.7441 44.8069 40.7776 44.7918 40.8108 44.7758C40.8439 44.7598 40.8766 44.7431 40.9088 44.7256L40.9089 44.7255C40.9732 44.6906 41.0357 44.6526 41.0962 44.6118L41.0962 44.6117L41.0963 44.6116C41.1478 44.5768 41.1974 44.5397 41.2457 44.5009C41.2479 44.4991 41.2503 44.4973 41.2525 44.4955C41.3015 44.4559 41.3486 44.4142 41.3941 44.3708C41.4476 44.3197 41.4987 44.2661 41.547 44.21V44.2099C41.6226 44.1222 41.6918 44.0288 41.7535 43.9301C41.7552 43.9275 41.7569 43.9249 41.7586 43.9222C41.7813 43.8856 41.8032 43.8485 41.8239 43.8105C41.8239 43.8105 41.824 43.8103 41.8241 43.8102V43.8101C41.879 43.7089 41.9263 43.6029 41.9656 43.4931C41.97 43.4807 41.9741 43.4679 41.9784 43.4554C41.9879 43.4273 41.9969 43.399 42.0054 43.3705C42.0096 43.356 42.0137 43.3415 42.0178 43.3269C42.0256 43.2983 42.0328 43.2694 42.0395 43.2402C42.0426 43.2269 42.0459 43.2137 42.0487 43.2003C42.0576 43.1584 42.0657 43.1161 42.0722 43.0734C42.0722 43.0731 42.0723 43.0729 42.0723 43.0727V43.0723C42.0799 43.0224 42.0853 42.9717 42.0896 42.9207C42.0906 42.9078 42.0916 42.8949 42.0926 42.882C42.0961 42.8305 42.0985 42.7788 42.0985 42.7264V40.8344V40.235L37.9624 40.2349Z" fill="#ED5729"/>
<path d="M35.3182 33.4952C36.4326 33.4952 37.3361 32.5918 37.3361 31.4774C37.3361 30.3629 36.4326 29.4595 35.3182 29.4595C34.2037 29.4595 33.3003 30.3629 33.3003 31.4774C33.3003 32.5918 34.2037 33.4952 35.3182 33.4952Z" fill="#F2F2F2"/>
</g>
<defs>
<clipPath id="clip0_24530_50856">
<rect width="45" height="45" fill="white"/>
</clipPath>
</defs>
</svg>
