<svg width="20" height="20" viewBox="0 0 20 20" fill="none" xmlns="http://www.w3.org/2000/svg">
<path d="M17.668 13.9506L12.8195 9.10122L13.5547 8.36599C13.722 8.42527 13.8954 8.45977 14.0706 8.45977C14.4669 8.45977 14.8633 8.30848 15.165 8.00677L15.7905 7.38124C16.0834 7.08839 16.2444 6.69909 16.2444 6.28591C16.2444 5.87272 16.0825 5.48343 15.7905 5.19234L12.0374 1.43829C11.4526 0.855231 10.4333 0.852577 9.84759 1.43829L9.22206 2.06382C8.78676 2.49912 8.67086 3.12907 8.86285 3.67409L4.57617 7.96076C4.03204 7.76966 3.40121 7.88556 2.9659 8.31998L2.34037 8.94551C1.73697 9.5498 1.73697 10.531 2.34037 11.1353L6.09442 14.8893C6.38728 15.1822 6.77569 15.3432 7.18888 15.3432C7.60206 15.3432 7.99136 15.1813 8.28333 14.8893L8.90974 14.2638C9.34416 13.8285 9.46095 13.1977 9.26895 12.6527L10.0042 11.9174L14.8527 16.7659C15.2402 17.1535 15.7507 17.3481 16.2604 17.3481C16.77 17.3481 17.2805 17.1535 17.668 16.7659C18.444 15.99 18.444 14.7265 17.668 13.9506ZM8.43993 11.6042L5.62462 8.7889L9.69099 4.72165L12.5063 7.53696L8.43993 11.6033V11.6042ZM10.1608 3.00167L10.7863 2.37614C10.8429 2.3204 10.9084 2.31155 10.9429 2.31155C10.9774 2.31155 11.0429 2.3204 11.0995 2.37614L14.8536 6.13107C14.9093 6.18593 14.9182 6.25229 14.9182 6.28591C14.9182 6.32041 14.9102 6.38677 14.8536 6.4434L14.2281 7.06892C14.1413 7.15563 14.0016 7.15563 13.9148 7.06892L10.1608 3.31487C10.075 3.22817 10.075 3.08837 10.1608 3.00167ZM7.97101 13.3251L7.34459 13.9506C7.23223 14.063 7.14552 14.063 7.03227 13.9506L3.27822 10.1966C3.1924 10.1099 3.1924 9.97006 3.27822 9.88336L3.90375 9.25783C3.9471 9.21447 4.00373 9.19324 4.06035 9.19324C4.11698 9.19324 4.1736 9.21447 4.21696 9.25783L7.97012 13.011C8.05683 13.0977 8.05683 13.2384 7.97012 13.3242L7.97101 13.3251ZM16.7293 15.8272C16.4709 16.0855 16.0498 16.0873 15.7905 15.8272L10.942 10.9787L11.8808 10.04L16.7293 14.8893C16.9876 15.1477 16.9876 15.5688 16.7293 15.8272Z" fill="#AFB1B5"/>
<path d="M8.62644 18.2353H0.663572C0.29728 18.2353 0 17.9381 0 17.5718C0 17.2055 0.29728 16.9082 0.663572 16.9082H8.62644C8.99273 16.9082 9.29001 17.2055 9.29001 17.5718C9.29001 17.9381 8.99273 18.2353 8.62644 18.2353Z" fill="#AFB1B5"/>
</svg>
