<svg width="20" height="20" viewBox="0 0 20 20" fill="none" xmlns="http://www.w3.org/2000/svg">
<g clip-path="url(#clip0_26823_50582)">
<path d="M15.8333 0.833008H4.16667C1.86917 0.833008 0 2.70217 0 4.99967V14.9997C0 17.2972 1.86917 19.1663 4.16667 19.1663H15.8333C18.1308 19.1663 20 17.2972 20 14.9997V4.99967C20 2.70217 18.1308 0.833008 15.8333 0.833008ZM18.3333 14.9997C18.3333 16.378 17.2117 17.4997 15.8333 17.4997H4.16667C2.78833 17.4997 1.66667 16.378 1.66667 14.9997V4.99967C1.66667 3.62134 2.78833 2.49967 4.16667 2.49967H15.8333C17.2117 2.49967 18.3333 3.62134 18.3333 4.99967V14.9997ZM15.8333 5.83301C15.8333 6.29301 15.46 6.66634 15 6.66634H9.16667C8.70667 6.66634 8.33333 6.29301 8.33333 5.83301C8.33333 5.37301 8.70667 4.99967 9.16667 4.99967H15C15.46 4.99967 15.8333 5.37301 15.8333 5.83301ZM6.66667 5.83301C6.66667 6.52301 6.10667 7.08301 5.41667 7.08301C4.72667 7.08301 4.16667 6.52301 4.16667 5.83301C4.16667 5.14301 4.72667 4.58301 5.41667 4.58301C6.10667 4.58301 6.66667 5.14301 6.66667 5.83301ZM15.8333 9.99967C15.8333 10.4597 15.46 10.833 15 10.833H9.16667C8.70667 10.833 8.33333 10.4597 8.33333 9.99967C8.33333 9.53967 8.70667 9.16634 9.16667 9.16634H15C15.46 9.16634 15.8333 9.53967 15.8333 9.99967ZM6.66667 9.99967C6.66667 10.6897 6.10667 11.2497 5.41667 11.2497C4.72667 11.2497 4.16667 10.6897 4.16667 9.99967C4.16667 9.30968 4.72667 8.74967 5.41667 8.74967C6.10667 8.74967 6.66667 9.30968 6.66667 9.99967ZM15.8333 14.1663C15.8333 14.6263 15.46 14.9997 15 14.9997H9.16667C8.70667 14.9997 8.33333 14.6263 8.33333 14.1663C8.33333 13.7063 8.70667 13.333 9.16667 13.333H15C15.46 13.333 15.8333 13.7063 15.8333 14.1663ZM6.66667 14.1663C6.66667 14.8563 6.10667 15.4163 5.41667 15.4163C4.72667 15.4163 4.16667 14.8563 4.16667 14.1663C4.16667 13.4763 4.72667 12.9163 5.41667 12.9163C6.10667 12.9163 6.66667 13.4763 6.66667 14.1663Z" fill="#AFAFAF"/>
</g>
<defs>
<clipPath id="clip0_26823_50582">
<rect width="20" height="20" fill="white"/>
</clipPath>
</defs>
</svg>
