<svg width="54" height="48" viewBox="0 0 54 48" fill="none" xmlns="http://www.w3.org/2000/svg">
<g clip-path="url(#clip0_24530_54284)">
<rect x="8.52637" y="5.625" width="39.7895" height="39.375" rx="4" fill="#F8F8F8"/>
<path fill-rule="evenodd" clip-rule="evenodd" d="M21.9878 32.8967C21.9883 34.2089 21.5955 35.4917 20.8592 36.583C20.1228 37.6742 19.076 38.5249 17.8511 39.0273C16.6262 39.5298 15.2782 39.6615 13.9777 39.4058C12.6771 39.1501 11.4824 38.5184 10.5446 37.5908C9.60686 36.6631 8.96816 35.481 8.70931 34.1941C8.45045 32.9072 8.58307 31.5732 9.09039 30.3609C9.59772 29.1486 10.457 28.1124 11.5594 27.3833C12.6619 26.6543 13.9581 26.2651 15.2841 26.2651C17.0616 26.2653 18.7663 26.9639 20.0234 28.2075C21.2805 29.4511 21.9871 31.1378 21.9878 32.8967Z" fill="#FEDB41"/>
<path fill-rule="evenodd" clip-rule="evenodd" d="M19.8895 32.8968C19.8895 33.7982 19.6194 34.6793 19.1134 35.4287C18.6073 36.1782 17.888 36.7624 17.0465 37.1073C16.205 37.4522 15.279 37.5425 14.3856 37.3666C13.4923 37.1908 12.6717 36.7567 12.0276 36.1194C11.3835 35.482 10.9449 34.6699 10.7672 33.7859C10.5895 32.9018 10.6807 31.9855 11.0293 31.1527C11.3778 30.32 11.9681 29.6082 12.7255 29.1074C13.4828 28.6066 14.3733 28.3394 15.2841 28.3394C16.5055 28.3396 17.6768 28.8198 18.5404 29.6744C19.404 30.5291 19.8893 31.6881 19.8895 32.8968Z" fill="#FEA832"/>
<path d="M15.8421 35.5609V35.9342C15.8421 36.0806 15.7833 36.221 15.6787 36.3246C15.5741 36.4281 15.4322 36.4863 15.2842 36.4863C15.1362 36.4863 14.9943 36.4281 14.8897 36.3246C14.7851 36.221 14.7263 36.0806 14.7263 35.9342V35.5587C14.5832 35.5091 14.4479 35.4399 14.3243 35.353C14.0424 35.1559 13.8281 34.8783 13.71 34.5574C13.6846 34.489 13.6733 34.4163 13.6765 34.3435C13.6797 34.2707 13.6974 34.1993 13.7287 34.1334C13.7599 34.0674 13.8041 34.0082 13.8585 33.9592C13.913 33.9103 13.9767 33.8724 14.0461 33.8479C14.1154 33.8234 14.1889 33.8128 14.2624 33.8165C14.3359 33.8203 14.408 33.8385 14.4743 33.8699C14.5407 33.9014 14.6002 33.9455 14.6492 33.9998C14.6983 34.0541 14.736 34.1175 14.7602 34.1863C14.7919 34.2736 14.8454 34.3515 14.9157 34.4128C14.986 34.4742 15.0708 34.517 15.1622 34.5373C15.2537 34.5575 15.3488 34.5547 15.4388 34.5289C15.5289 34.5031 15.6109 34.4552 15.6772 34.3897C15.7551 34.3127 15.8082 34.2146 15.8297 34.1077C15.8513 34.0009 15.8403 33.8901 15.7983 33.7894C15.7562 33.6887 15.6849 33.6026 15.5934 33.542C15.5019 33.4814 15.3943 33.449 15.2842 33.4489C14.8902 33.4482 14.5091 33.3099 14.208 33.0583C13.907 32.8068 13.7053 32.4581 13.6386 32.0738C13.5719 31.6895 13.6445 31.2943 13.8435 30.9578C14.0424 30.6212 14.3551 30.365 14.7263 30.2343V29.8587C14.7263 29.7123 14.7851 29.5719 14.8897 29.4683C14.9943 29.3648 15.1362 29.3066 15.2842 29.3066C15.4322 29.3066 15.5741 29.3648 15.6787 29.4683C15.7833 29.5719 15.8421 29.7123 15.8421 29.8587V30.2343C15.9853 30.2859 16.1212 30.3557 16.2462 30.4419C16.5286 30.6381 16.7424 30.9161 16.8584 31.2376C16.883 31.3059 16.8939 31.3782 16.8902 31.4506C16.8866 31.523 16.8686 31.594 16.8373 31.6595C16.806 31.725 16.7619 31.7837 16.7077 31.8324C16.6534 31.881 16.59 31.9186 16.521 31.943C16.4521 31.9674 16.3789 31.9781 16.3058 31.9745C16.2327 31.971 16.1609 31.9532 16.0948 31.9222C16.0286 31.8912 15.9692 31.8476 15.92 31.7939C15.8709 31.7402 15.8329 31.6774 15.8082 31.6092C15.7704 31.5018 15.6995 31.4089 15.6054 31.3436C15.5114 31.2782 15.3991 31.2437 15.2842 31.2449C15.1368 31.2449 14.9955 31.3028 14.8913 31.4059C14.7871 31.509 14.7286 31.6489 14.7286 31.7947C14.7286 31.9406 14.7871 32.0804 14.8913 32.1835C14.9955 32.2867 15.1368 32.3446 15.2842 32.3446C15.6149 32.3448 15.9381 32.442 16.213 32.6239C16.4879 32.8059 16.702 33.0644 16.8285 33.3667C16.9549 33.6691 16.9879 34.0018 16.9233 34.3228C16.8587 34.6437 16.6993 34.9385 16.4655 35.1698C16.2892 35.3439 16.0763 35.4774 15.842 35.561L15.8421 35.5609Z" fill="#FEDB41"/>
<path fill-rule="evenodd" clip-rule="evenodd" d="M10.4575 41.5156H20.1136C20.5801 41.5174 21.0269 41.7018 21.3565 42.0284C21.6861 42.355 21.8719 42.7974 21.8731 43.259V44.6849C21.8732 44.7263 21.865 44.7673 21.849 44.8056C21.833 44.8439 21.8095 44.8787 21.7799 44.9079C21.7503 44.9372 21.7152 44.9605 21.6765 44.9763C21.6378 44.9921 21.5963 45.0002 21.5545 45.0002H9.01418C8.97232 45.0002 8.93086 44.9921 8.89217 44.9763C8.85348 44.9605 8.81832 44.9373 8.78872 44.908C8.75912 44.8787 8.73565 44.8439 8.71967 44.8056C8.70368 44.7673 8.69549 44.7263 8.69556 44.6849V43.259C8.69693 42.797 8.88299 42.3544 9.21309 42.0277C9.54319 41.7011 9.99051 41.517 10.4573 41.5156H10.4575Z" fill="#9B4D11"/>
<path fill-rule="evenodd" clip-rule="evenodd" d="M10.2541 32.8968C10.2547 31.2807 10.8511 29.7204 11.9314 28.5085C13.0118 27.2966 14.5019 26.5164 16.1221 26.3143C15.8441 26.281 15.5642 26.2645 15.2841 26.2652C14.4039 26.2652 13.5324 26.4367 12.7192 26.77C11.906 27.1034 11.1671 27.5919 10.5447 28.2078C9.92229 28.8238 9.42858 29.5549 9.09175 30.3597C8.75491 31.1644 8.58154 32.0269 8.58154 32.8979C8.58154 33.7689 8.75491 34.6314 9.09175 35.4362C9.42858 36.2409 9.92229 36.9721 10.5447 37.588C11.1671 38.2039 11.906 38.6925 12.7192 39.0258C13.5324 39.3591 14.4039 39.5307 15.2841 39.5307C15.5643 39.5305 15.8441 39.5133 16.1221 39.4792C14.5016 39.2779 13.011 38.4979 11.9305 37.2858C10.85 36.0738 10.2539 34.513 10.2541 32.8968Z" fill="#E5C53B"/>
<path fill-rule="evenodd" clip-rule="evenodd" d="M18.9816 32.8968C18.9819 34.028 18.5571 35.119 17.7899 35.9576C17.0226 36.7962 15.9676 37.3225 14.8301 37.4342C14.9792 37.4475 15.1305 37.4565 15.2841 37.4565C16.5025 37.4515 17.6694 36.969 18.5292 36.1147C19.389 35.2603 19.8717 34.1037 19.8717 32.8979C19.8717 31.6922 19.389 30.5355 18.5292 29.6811C17.6694 28.8268 16.5025 28.3443 15.2841 28.3394C15.1325 28.3389 14.9809 28.3464 14.8301 28.3617C15.9673 28.4732 17.022 28.9992 17.7893 29.8373C18.5565 30.6754 18.9815 31.7659 18.9816 32.8968Z" fill="#E5972D"/>
<path fill-rule="evenodd" clip-rule="evenodd" d="M10.0351 43.259C10.0359 42.7973 10.2215 42.3547 10.5512 42.028C10.8809 41.7013 11.3279 41.5171 11.7945 41.5156H10.4578C9.991 41.517 9.54368 41.7011 9.21358 42.0277C8.88348 42.3544 8.69742 42.797 8.69605 43.259V44.6849C8.69597 44.7263 8.70417 44.7673 8.72015 44.8056C8.73614 44.8439 8.75961 44.8787 8.78921 44.908C8.81881 44.9373 8.85396 44.9605 8.89265 44.9763C8.93134 44.9921 8.97281 45.0002 9.01467 45.0002H10.3535C10.3117 45.0002 10.2702 44.9921 10.2315 44.9763C10.1928 44.9605 10.1577 44.9373 10.1281 44.908C10.0985 44.8787 10.075 44.8439 10.059 44.8056C10.043 44.7673 10.0348 44.7263 10.0349 44.6849L10.0351 43.259Z" fill="#8C450F"/>
<path fill-rule="evenodd" clip-rule="evenodd" d="M25.3669 17.3359L28.7731 13.9653L47.5605 32.5571C48.0097 33.0053 48.2618 33.6111 48.2618 34.2424C48.2618 34.8737 48.0097 35.4795 47.5605 35.9277C47.1071 36.3723 46.4946 36.6217 45.8563 36.6217C45.218 36.6217 44.6056 36.3723 44.1522 35.9277L25.3669 17.3359Z" fill="#BF6015"/>
<path fill-rule="evenodd" clip-rule="evenodd" d="M27.1196 19.0704L30.5257 15.6997L36.6535 21.7636C36.6121 21.8147 36.5676 21.8632 36.5202 21.9089L34.1666 24.2379L45.067 35.0226C45.4398 35.3894 45.9232 35.6261 46.4441 35.6966C46.9649 35.7672 47.4948 35.6679 47.9535 35.4137C47.8462 35.6016 47.714 35.7745 47.5605 35.9278C47.1071 36.3724 46.4947 36.6218 45.8564 36.6218C45.2181 36.6218 44.6056 36.3724 44.1522 35.9278C38.474 30.3087 32.7964 24.6896 27.1196 19.0704Z" fill="#AC5613"/>
<path fill-rule="evenodd" clip-rule="evenodd" d="M26.9141 20.6396L32.1113 15.4966L35.829 19.1759C36.1024 19.4484 36.2559 19.8168 36.2559 20.2007C36.2559 20.5847 36.1024 20.9531 35.829 21.2256L32.7032 24.3187C32.4279 24.5892 32.0556 24.7411 31.6676 24.7411C31.2796 24.7411 30.9073 24.5892 30.632 24.3187L26.9141 20.6396Z" fill="#9B4D11"/>
<path d="M20.1357 21.3188L32.7937 8.79278L38.4711 14.4111L25.8132 26.9371L20.1357 21.3188Z" fill="#BF6015"/>
<path fill-rule="evenodd" clip-rule="evenodd" d="M19.1104 19.4593C19.5495 19.0266 20.144 18.7837 20.7637 18.7837C21.3835 18.7837 21.9779 19.0266 22.4171 19.4593L27.6956 24.685C28.1328 25.1196 28.3783 25.7079 28.3783 26.3212C28.3783 26.9344 28.1328 27.5227 27.6956 27.9573C27.2559 28.389 26.6616 28.6312 26.0423 28.6312C25.4229 28.6312 24.8286 28.389 24.3889 27.9573L19.1104 22.7316C18.6732 22.297 18.4277 21.7087 18.4277 21.0954C18.4277 20.4822 18.6732 19.8939 19.1104 19.4593Z" fill="#9B4D11"/>
<path fill-rule="evenodd" clip-rule="evenodd" d="M30.9185 7.77374C31.3577 7.34106 31.9521 7.09814 32.5718 7.09814C33.1916 7.09814 33.786 7.34106 34.2252 7.77374L39.5059 12.9995C39.9421 13.4342 40.1869 14.0219 40.1869 14.6345C40.1869 15.2471 39.9421 15.8348 39.5059 16.2695C39.0668 16.7022 38.4723 16.9451 37.8526 16.9451C37.2329 16.9451 36.6384 16.7022 36.1993 16.2695L30.9185 11.046C30.4813 10.6114 30.2358 10.0231 30.2358 9.40988C30.2358 8.79664 30.4813 8.20836 30.9185 7.77374Z" fill="#9B4D11"/>
<path d="M26.5327 19.5126C26.4812 19.5648 26.4197 19.6063 26.3518 19.6348C26.2839 19.6633 26.211 19.6782 26.1372 19.6786C26.0635 19.679 25.9904 19.665 25.9222 19.6372C25.854 19.6095 25.792 19.5686 25.7399 19.517C25.6878 19.4654 25.6465 19.4041 25.6185 19.3366C25.5905 19.2691 25.5762 19.1968 25.5767 19.1238C25.5771 19.0509 25.5921 18.9787 25.6209 18.9115C25.6497 18.8444 25.6917 18.7835 25.7445 18.7325L30.1824 14.3381C30.2341 14.2868 30.2956 14.246 30.3633 14.2181C30.431 14.1903 30.5035 14.1759 30.5768 14.1758C30.6501 14.1757 30.7227 14.1899 30.7905 14.2175C30.8583 14.2452 30.9198 14.2858 30.9718 14.337C31.0237 14.3882 31.0649 14.4491 31.093 14.516C31.1212 14.583 31.1357 14.6548 31.1358 14.7274C31.1359 14.7999 31.1216 14.8717 31.0936 14.9388C31.0657 15.0058 31.0246 15.0668 30.9729 15.1182L26.5327 19.5126Z" fill="#EAF6FF"/>
<path fill-rule="evenodd" clip-rule="evenodd" d="M25.2021 27.1524L19.9212 21.9287C19.5548 21.5638 19.3211 21.0888 19.2569 20.5783C19.1928 20.0677 19.3017 19.5506 19.5666 19.1079C19.2607 19.288 19.0005 19.5349 18.8057 19.8297C18.6109 20.1245 18.4868 20.4595 18.4427 20.809C18.3987 21.1586 18.436 21.5134 18.5517 21.8466C18.6674 22.1797 18.8585 22.4822 19.1104 22.7311L24.3889 27.9568C24.6411 28.2052 24.9471 28.3935 25.2837 28.5075C25.6204 28.6215 25.9788 28.6581 26.3319 28.6146C26.6849 28.5711 27.0234 28.4486 27.3215 28.2564C27.6196 28.0642 27.8696 27.8073 28.0524 27.5053C27.605 27.7674 27.0822 27.8749 26.5662 27.8109C26.0503 27.747 25.5704 27.5153 25.2021 27.1522V27.1524Z" fill="#8C450F"/>
<path fill-rule="evenodd" clip-rule="evenodd" d="M37.0102 15.4671L31.7294 10.2436C31.3629 9.87871 31.1292 9.40372 31.065 8.89319C31.0009 8.38266 31.1098 7.86549 31.3747 7.42285C31.0688 7.60295 30.8086 7.84984 30.6138 8.14466C30.419 8.43948 30.2949 8.77445 30.2508 9.12398C30.2068 9.47352 30.2441 9.82839 30.3598 10.1615C30.4755 10.4946 30.6666 10.7972 30.9185 11.046L36.1993 16.2695C36.6384 16.7022 37.2329 16.9451 37.8526 16.9451C38.4723 16.9451 39.0668 16.7022 39.5059 16.2695C39.6436 16.135 39.7628 15.9832 39.8605 15.818C39.4133 16.0803 38.8907 16.1881 38.3748 16.1246C37.8588 16.0611 37.3789 15.8298 37.0102 15.4671Z" fill="#8C450F"/>
<path fill-rule="evenodd" clip-rule="evenodd" d="M28.0206 23.5965L22.9296 18.5585L22.2046 19.2737C22.279 19.3313 22.3499 19.3932 22.4169 19.4592L27.6954 24.6849C27.7621 24.7503 27.8247 24.8196 27.8829 24.8925L29.5475 23.2453L30.4442 22.3602L33.8502 18.9896L34.7447 18.1022L36.4094 16.4549C36.3352 16.3979 36.2651 16.336 36.1995 16.2694L35.811 15.8872L34.1576 17.5211L33.2632 18.4084L29.8571 21.779L28.9604 22.6642L28.0206 23.5965Z" fill="#AC5613"/>
<path fill-rule="evenodd" clip-rule="evenodd" d="M31.63 23.3302L30.5459 22.2593L30.4442 22.3599L29.5479 23.2453L30.632 24.3182C30.8832 24.5647 31.2157 24.7134 31.5686 24.7372C31.9216 24.761 32.2714 24.6583 32.5541 24.4478C32.6064 24.4076 32.6562 24.3643 32.7032 24.3182L33.7015 23.3302C33.4262 23.6008 33.0539 23.7527 32.6659 23.7527C32.2779 23.7527 31.9056 23.6008 31.6303 23.3302H31.63Z" fill="#8C450F"/>
</g>
<g clip-path="url(#clip1_24530_54284)">
<path d="M48.4809 36.9709C47.7587 36.2955 46.8523 35.8493 45.8765 35.689C44.9007 35.5286 43.8992 35.6612 42.9988 36.07C42.0983 36.4788 41.3393 37.1454 40.8177 37.9856C40.2961 38.8257 40.0354 39.8017 40.0685 40.7901C40.1016 41.7784 40.427 42.7348 41.0036 43.5382C41.5802 44.3416 42.3821 44.9559 43.3079 45.3036C44.2337 45.6513 45.2417 45.7166 46.2046 45.4913C47.1675 45.2661 48.042 44.7603 48.7175 44.038C49.6219 43.0689 50.105 41.7805 50.0606 40.4556C50.0163 39.1307 49.4482 37.8775 48.4809 36.9709ZM46.3027 42.3501L45.0854 41.2117L43.947 42.429L43.3383 41.8598L44.4767 40.6425L43.2595 39.5041L43.8287 38.8954L45.046 40.0339L46.1844 38.8166L46.793 39.3858L45.6546 40.6031L46.8719 41.7415L46.3027 42.3501Z" fill="#FF4040"/>
</g>
<defs>
<clipPath id="clip0_24530_54284">
<rect x="8.52637" y="5.625" width="39.7895" height="39.375" rx="4" fill="white"/>
</clipPath>
<clipPath id="clip1_24530_54284">
<rect width="10" height="10" fill="white" transform="translate(44.8291 33.5557) rotate(43.0828)"/>
</clipPath>
</defs>
</svg>
