<svg width="24" height="24" viewBox="0 0 24 24" fill="none" xmlns="http://www.w3.org/2000/svg">
<g clip-path="url(#clip0_24530_166926)">
<path d="M24 12C24 18.6274 18.6274 24 12 24C8.50628 24 5.36131 22.5071 3.16849 20.1242C2.59249 19.4988 2.08261 18.8116 1.64865 18.0744C0.60098 16.2926 0 14.2163 0 12C0 5.37257 5.37257 0 12 0C14.2168 0 16.2931 0.600979 18.0744 1.64914C18.8116 2.08261 19.4983 2.59249 20.1238 3.16898C22.5066 5.36082 24 8.50628 24 12Z" fill="#F0CD00"/>
<path d="M24 11.9995C24 18.4775 18.8674 23.7565 12.4467 23.9912C6.02596 23.7565 0.893387 18.4775 0.893387 11.9995C0.893387 5.52145 6.02596 0.242425 12.4467 0.0078125C18.8674 0.242425 24 5.52145 24 11.9995Z" fill="#FFDE50"/>
<path d="M20.1238 3.16827L3.16849 20.1235C2.59249 19.4981 2.08261 18.8109 1.64865 18.0737L18.0744 1.64844C18.8116 2.08191 19.4983 2.59178 20.1238 3.16827Z" fill="#FFEA94"/>
<path d="M23.1722 7.61291L7.61241 23.1727C6.51086 22.7398 5.48865 22.1486 4.5742 21.4271L21.4271 4.57422C22.1486 5.48867 22.7398 6.51087 23.1722 7.61291Z" fill="#FFEA94"/>
<path d="M21.3247 12.0005C21.3247 17.1502 17.1497 21.3253 12 21.3253C10.2064 21.3253 8.53126 20.8188 7.10939 19.9411C6.48979 19.559 5.91869 19.106 5.40636 18.5937C5.02971 18.2175 4.6849 17.8085 4.37681 17.3721C3.95265 16.7711 3.59755 16.1177 3.32375 15.4237C2.9182 14.3976 2.68996 13.2818 2.67624 12.1151C2.67526 12.0769 2.67526 12.0387 2.67526 12.0005C2.67526 6.8508 6.84979 2.67578 12 2.67578C12.0382 2.67578 12.0769 2.67578 12.1151 2.67676C13.2818 2.69048 14.3971 2.91921 15.4232 3.32427C16.1172 3.59856 16.7706 3.95317 17.3716 4.37733C17.808 4.6859 18.2165 5.03023 18.5931 5.40688C19.1055 5.91872 19.5585 6.49031 19.9406 7.1099C20.8183 8.53178 21.3247 10.2069 21.3247 12.0005Z" fill="#FAA300"/>
<path d="M18.5931 5.40688L5.40636 18.5937C5.02971 18.2175 4.6849 17.8085 4.37681 17.3721C3.95265 16.7711 3.59755 16.1177 3.32375 15.4237C2.9182 14.3976 2.68996 13.2818 2.67624 12.1151C2.67526 12.0769 2.67526 12.0387 2.67526 12.0005C2.67526 6.8508 6.84979 2.67578 12 2.67578C12.0382 2.67578 12.0769 2.67578 12.1151 2.67676C13.2818 2.69048 14.3971 2.91921 15.4232 3.32427C16.1172 3.59856 16.7706 3.95317 17.3716 4.37733C17.808 4.6859 18.2165 5.03023 18.5931 5.40688Z" fill="#FFBD00"/>
<path d="M21.3245 12.0005C21.3245 17.1502 17.1495 21.3253 11.9998 21.3253C11.8229 21.3253 11.6476 21.3204 11.4732 21.3106C16.378 21.0377 20.2709 16.9734 20.2709 12.0005C20.2709 7.02762 16.378 2.96329 11.4732 2.69048C11.6476 2.68068 11.8229 2.67578 11.9998 2.67578C17.1495 2.67578 21.3245 6.8508 21.3245 12.0005Z" fill="#F68E00"/>
<path d="M11.6928 11.2844V7.50798C12.2813 7.83266 12.681 8.45931 12.681 9.17769C12.681 9.68443 13.0918 10.0952 13.5986 10.0952C14.1053 10.0952 14.5161 9.68443 14.5161 9.17769C14.5161 7.43152 13.3133 5.96125 11.6928 5.55109V4.80425C11.6928 4.29751 11.282 3.88672 10.7753 3.88672C10.2685 3.88672 9.85774 4.29751 9.85774 4.80425V5.55105C8.23725 5.96125 7.03445 7.43147 7.03445 9.17764C7.03445 10.2203 7.34068 11.0333 7.9706 11.6633C8.42988 12.1225 9.03997 12.4624 9.85774 12.7116V16.4939C9.2692 16.1692 8.86952 15.5426 8.86952 14.8242C8.86952 14.3175 8.45873 13.9067 7.95199 13.9067C7.44525 13.9067 7.03445 14.3175 7.03445 14.8242C7.03445 16.5704 8.23725 18.0406 9.85774 18.4508V19.1976C9.85774 19.7043 10.2685 20.1151 10.7753 20.1151C11.282 20.1151 11.6928 19.7043 11.6928 19.1976V18.4508C13.3133 18.0406 14.5161 16.5704 14.5161 14.8242C14.5161 13.796 14.1967 12.9554 13.567 12.3256C13.1092 11.8678 12.4916 11.5247 11.6928 11.2844ZM9.26822 10.3657C9.08258 10.1801 8.86957 9.87731 8.86957 9.17764C8.86957 8.45926 9.26925 7.83266 9.85778 7.50793V10.7561C9.61029 10.6414 9.41437 10.5119 9.26822 10.3657ZM11.6928 16.4939V13.2357C12.4902 13.6071 12.681 14.1383 12.681 14.8242C12.681 15.5426 12.2813 16.1692 11.6928 16.4939Z" fill="#F68E00"/>
<path d="M12.9174 11.2844V7.50798C13.5059 7.83266 13.9056 8.45931 13.9056 9.17769C13.9056 9.68443 14.3164 10.0952 14.8231 10.0952C15.3299 10.0952 15.7407 9.68443 15.7407 9.17769C15.7407 7.43152 14.5379 5.96125 12.9174 5.55109V4.80425C12.9174 4.29751 12.5066 3.88672 11.9998 3.88672C11.4931 3.88672 11.0823 4.29751 11.0823 4.80425V5.55105C9.46183 5.96125 8.25903 7.43147 8.25903 9.17764C8.25903 10.2203 8.56525 11.0333 9.19518 11.6633C9.65446 12.1225 10.2646 12.4624 11.0823 12.7116V16.4939C10.4938 16.1692 10.0941 15.5426 10.0941 14.8242C10.0941 14.3175 9.68331 13.9067 9.17657 13.9067C8.66983 13.9067 8.25903 14.3175 8.25903 14.8242C8.25903 16.5704 9.46183 18.0406 11.0823 18.4508V19.1976C11.0823 19.7043 11.4931 20.1151 11.9998 20.1151C12.5066 20.1151 12.9174 19.7043 12.9174 19.1976V18.4508C14.5379 18.0406 15.7407 16.5704 15.7407 14.8242C15.7407 13.796 15.4213 12.9554 14.7915 12.3256C14.3338 11.8678 13.7161 11.5247 12.9174 11.2844ZM10.4927 10.3657C10.3071 10.1801 10.0941 9.87731 10.0941 9.17764C10.0941 8.45926 10.4938 7.83266 11.0823 7.50793V10.7561C10.8349 10.6414 10.639 10.5119 10.4927 10.3657ZM12.9174 16.4939V13.2357C13.7148 13.6071 13.9056 14.1383 13.9056 14.8242C13.9055 15.5426 13.5059 16.1692 12.9174 16.4939Z" fill="#FFEA94"/>
</g>
<defs>
<clipPath id="clip0_24530_166926">
<rect width="24" height="24" fill="white"/>
</clipPath>
</defs>
</svg>
