<svg width="16" height="16" viewBox="0 0 16 16" fill="none" xmlns="http://www.w3.org/2000/svg">
<path d="M8.00064 1.4375C4.38277 1.4375 1.43945 4.38088 1.43945 7.99875C1.43945 11.6166 4.38277 14.56 8.00064 14.56C11.6184 14.56 14.5618 11.6165 14.5618 7.99875C14.5618 4.38097 11.6184 1.4375 8.00064 1.4375ZM8.00064 13.1562C5.15686 13.1562 2.84317 10.8425 2.84317 7.99872C2.84317 5.15497 5.15686 2.84119 8.00064 2.84119C10.8445 2.84119 13.1581 5.15494 13.1581 7.99872C13.1581 10.8425 10.8444 13.1562 8.00064 13.1562ZM8.00064 3.78125C5.67511 3.78125 3.78317 5.67319 3.78317 7.99872C3.78317 10.3243 5.67508 12.2162 8.00064 12.2162C10.3263 12.2162 12.2181 10.3243 12.2181 7.99872C12.2181 5.67313 10.3263 3.78125 8.00064 3.78125ZM8.65102 10.2025H8.47064V10.4612C8.47064 10.7208 8.26023 10.9312 8.00064 10.9312C7.74105 10.9312 7.53064 10.7208 7.53064 10.4612V10.2025H7.39383C6.88211 10.2025 6.40942 9.90259 6.18805 9.44166C6.07573 9.20784 6.17458 8.92684 6.40833 8.81453C6.64214 8.70222 6.92317 8.80113 7.03548 9.03484C7.10133 9.17191 7.24127 9.26247 7.39383 9.26247H8.65102C8.8698 9.26247 9.04789 9.08437 9.04789 8.86559C9.04789 8.64681 8.86983 8.46869 8.65102 8.46869H7.35023C6.61308 8.46869 6.01336 7.869 6.01336 7.13184C6.01336 6.39466 6.61305 5.79494 7.35023 5.79494H7.53061V5.53619C7.53061 5.27656 7.74102 5.06622 8.00061 5.06622C8.2602 5.06622 8.47061 5.27656 8.47061 5.53619V5.79494H8.60742C9.11908 5.79494 9.59167 6.09491 9.81308 6.55575C9.92539 6.78956 9.82677 7.07063 9.59295 7.18294C9.3592 7.29522 9.07808 7.19631 8.9658 6.96263C8.89992 6.82556 8.76005 6.735 8.60745 6.735H7.35027C7.13145 6.735 6.95342 6.91306 6.95342 7.13188C6.95342 7.35063 7.13152 7.52875 7.35027 7.52875H8.65105C9.38823 7.52875 9.98792 8.12844 9.98792 8.86562C9.98789 9.60278 9.38817 10.2025 8.65102 10.2025Z" fill="url(#paint0_linear_26823_50440)"/>
<defs>
<linearGradient id="paint0_linear_26823_50440" x1="3.36333" y1="12.636" x2="12.6379" y2="3.36144" gradientUnits="userSpaceOnUse">
<stop stop-color="#039D55"/>
<stop offset="1" stop-color="#0FB065"/>
</linearGradient>
</defs>
</svg>
