<svg width="45" height="45" viewBox="0 0 45 45" fill="none" xmlns="http://www.w3.org/2000/svg">
<g clip-path="url(#clip0_24530_54358)">
<path fill-rule="evenodd" clip-rule="evenodd" d="M22 0C9.59353 0 -0.5 10.0935 -0.5 22.5C-0.5 34.9065 9.59327 45 22 45C34.4067 45 44.5 34.9066 44.5 22.5C44.5 10.0934 34.4066 0 22 0ZM17.6124 10.0484C17.6124 9.85448 17.6895 9.66846 17.8266 9.53128C17.9637 9.39409 18.1497 9.31696 18.3437 9.31685H25.6562C25.8502 9.31729 26.0361 9.39464 26.1732 9.53194C26.3103 9.66924 26.3874 9.85529 26.3876 10.0493V11.8579H17.6124V10.0484ZM29.6358 34.6366C29.6172 34.9219 29.4902 35.1892 29.2808 35.3838C29.0715 35.5785 28.7956 35.6857 28.5098 35.6836H15.4053C15.1196 35.6828 14.8447 35.574 14.6359 35.379C14.4272 35.184 14.2999 34.9172 14.2797 34.6322L13.1588 18.2285H30.832L29.6354 34.6366H29.6358ZM32.5486 16.7432H11.4514V15.0434C11.4517 14.5928 11.6309 14.1606 11.9496 13.8419C12.2683 13.5232 12.7004 13.344 13.1511 13.3436L30.8487 13.343C31.2994 13.3437 31.7315 13.523 32.0501 13.8418C32.3687 14.1606 32.5479 14.5928 32.5483 15.0435V16.743L32.5486 16.7432ZM18.603 31.7732V21.3574C18.6031 21.1605 18.6814 20.9716 18.8207 20.8323C18.9601 20.6931 19.149 20.6149 19.346 20.615C19.5429 20.6151 19.7318 20.6934 19.871 20.8327C20.0103 20.972 20.0884 21.161 20.0884 21.3579V31.7732C20.0899 31.8717 20.0718 31.9695 20.0352 32.0609C19.9985 32.1523 19.9441 32.2356 19.8749 32.3057C19.8058 32.3759 19.7234 32.4317 19.6326 32.4697C19.5417 32.5078 19.4442 32.5274 19.3457 32.5274C19.2472 32.5274 19.1497 32.5078 19.0588 32.4697C18.968 32.4317 18.8856 32.3759 18.8165 32.3057C18.7474 32.2356 18.6929 32.1523 18.6562 32.0609C18.6196 31.9695 18.6015 31.8717 18.603 31.7732ZM23.9021 31.7732V21.3574C23.9052 21.1624 23.9848 20.9765 24.1238 20.8397C24.2628 20.7029 24.45 20.6263 24.6451 20.6263C24.8401 20.6264 25.0272 20.7032 25.1661 20.8401C25.305 20.9769 25.3846 21.163 25.3875 21.3579V31.7736C25.3896 31.8725 25.372 31.9708 25.3357 32.0628C25.2993 32.1548 25.2449 32.2386 25.1758 32.3093C25.1066 32.38 25.024 32.4362 24.9328 32.4745C24.8416 32.5129 24.7437 32.5326 24.6448 32.5326C24.5459 32.5326 24.448 32.5129 24.3568 32.4745C24.2656 32.4362 24.183 32.38 24.1138 32.3093C24.0447 32.2386 23.9903 32.1548 23.954 32.0628C23.9176 31.9708 23.9 31.8725 23.9021 31.7736V31.7732Z" fill="#FF4040"/>
</g>
<defs>
<clipPath id="clip0_24530_54358">
<rect width="45" height="45" fill="white"/>
</clipPath>
</defs>
</svg>
