<svg width="45" height="45" viewBox="0 0 45 45" fill="none" xmlns="http://www.w3.org/2000/svg">
<g clip-path="url(#clip0_22505_69363)">
<path d="M22.5 45C34.9264 45 45 34.9264 45 22.5C45 10.0736 34.9264 0 22.5 0C10.0736 0 0 10.0736 0 22.5C0 34.9264 10.0736 45 22.5 45Z" fill="#DA1B1E"/>
<path d="M22.5 27C21.6852 27 20.902 26.6846 20.3144 26.1201C19.7269 25.5555 19.3807 24.7855 19.3482 23.9713L18.9325 13.4736C18.9158 13.0493 18.985 12.626 19.1358 12.229C19.2867 11.8321 19.5162 11.4697 19.8105 11.1635C20.1048 10.8574 20.4579 10.6139 20.8486 10.4475C21.2393 10.2811 21.6596 10.1953 22.0842 10.1953H22.9157C23.3403 10.1953 23.7606 10.2811 24.1513 10.4475C24.542 10.6139 24.8951 10.8574 25.1894 11.1635C25.4838 11.4697 25.7132 11.8321 25.8641 12.229C26.015 12.626 26.0841 13.0493 26.0675 13.4736L25.6517 23.9713C25.6193 24.7855 25.273 25.5555 24.6855 26.1201C24.098 26.6846 23.3148 27 22.5 27Z" fill="white"/>
<path d="M25.6493 31.656C25.6493 29.9167 24.2393 28.5068 22.5001 28.5068C20.7609 28.5068 19.351 29.9167 19.351 31.656C19.351 33.3952 20.7609 34.8051 22.5001 34.8051C24.2393 34.8051 25.6493 33.3952 25.6493 31.656Z" fill="white"/>
</g>
<defs>
<clipPath id="clip0_22505_69363">
<rect width="45" height="45" fill="white"/>
</clipPath>
</defs>
</svg>
