<svg width="45" height="45" viewBox="0 0 45 45" fill="none" xmlns="http://www.w3.org/2000/svg">
<path d="M22.5 45C34.9264 45 45 34.9264 45 22.5C45 10.0736 34.9264 0 22.5 0C10.0736 0 0 10.0736 0 22.5C0 34.9264 10.0736 45 22.5 45Z" fill="#DA1B1E"/>
<path d="M22.5001 27C21.6853 27 20.9021 26.6846 20.3146 26.1201C19.7271 25.5555 19.3808 24.7855 19.3483 23.9713L18.9326 13.4736C18.9159 13.0493 18.9851 12.626 19.136 12.229C19.2868 11.8321 19.5163 11.4697 19.8106 11.1635C20.1049 10.8574 20.458 10.6139 20.8487 10.4475C21.2394 10.2811 21.6597 10.1953 22.0844 10.1953H22.9158C23.3405 10.1953 23.7607 10.2811 24.1515 10.4475C24.5422 10.6139 24.8953 10.8574 25.1896 11.1635C25.4839 11.4697 25.7133 11.8321 25.8642 12.229C26.0151 12.626 26.0843 13.0493 26.0676 13.4736L25.6518 23.9713C25.6194 24.7855 25.2731 25.5555 24.6856 26.1201C24.0981 26.6846 23.3149 27 22.5001 27Z" fill="white"/>
<path d="M25.6493 31.656C25.6493 29.9167 24.2394 28.5068 22.5002 28.5068C20.761 28.5068 19.3511 29.9167 19.3511 31.656C19.3511 33.3952 20.761 34.8051 22.5002 34.8051C24.2394 34.8051 25.6493 33.3952 25.6493 31.656Z" fill="white"/>
</svg>
