<svg width="20" height="20" viewBox="0 0 20 20" fill="none" xmlns="http://www.w3.org/2000/svg">
<g clip-path="url(#clip0_24530_163215)">
<path d="M3.93282 15.6704C3.7377 15.4559 3.63983 15.1834 3.65379 14.8944C3.65571 14.8232 3.66692 14.7506 3.68486 14.6798C3.73569 14.4791 3.84678 14.2955 4.00504 14.1525L9.66703 8.9807L8.47666 7.65086C8.47411 7.65381 8.472 7.65506 8.4699 7.65632C8.07563 7.97999 7.48927 7.94273 7.13941 7.55979C6.96195 7.36768 6.87029 7.12013 6.88251 6.85941C6.88399 6.78981 6.8939 6.72232 6.90971 6.65993C6.95584 6.47779 7.0551 6.3127 7.19601 6.1815L10.6941 2.97045C10.9463 2.74002 11.2845 2.66596 11.5931 2.74414C11.7719 2.78942 11.9395 2.88571 12.0732 3.03085C12.249 3.22254 12.3385 3.47134 12.3301 3.73122C12.3179 3.99194 12.205 4.23252 12.0133 4.40829L15.8374 8.72391L15.8395 8.72266L15.856 8.70709C16.0481 8.52964 16.299 8.43885 16.5597 8.45105C16.8188 8.46283 17.0602 8.57244 17.236 8.76411C17.5985 9.16102 17.5729 9.77908 17.1756 10.1432L13.6791 13.3547C13.2822 13.7172 12.6642 13.6916 12.3017 13.2947C12.1259 13.1031 12.033 12.8534 12.0448 12.5944C12.048 12.5252 12.0558 12.459 12.0724 12.3932C12.1156 12.2229 12.2051 12.0679 12.3337 11.9425L11.1047 10.5742L5.44902 15.7422C5.00942 16.1387 4.33019 16.1067 3.93282 15.6704Z" fill="#AFB1B5"/>
</g>
<defs>
<clipPath id="clip0_24530_163215">
<rect width="20" height="20" fill="white"/>
</clipPath>
</defs>
</svg>
