<svg width="24" height="24" viewBox="0 0 24 24" fill="none" xmlns="http://www.w3.org/2000/svg">
<g clip-path="url(#clip0_24530_166819)">
<path d="M7.73438 19.7812H2.10938C0.942141 19.7812 0 20.7234 0 21.8906V23.2969C0 23.6906 0.309328 24 0.703125 24H9.14062C9.53442 24 9.84375 23.6906 9.84375 23.2969V21.8906C9.84375 20.7234 8.90161 19.7812 7.73438 19.7812Z" fill="#BF6015"/>
<path d="M9.85838 11.8481L12.3443 14.3341L13.1697 14.5031L14.5816 13.0911L14.3331 12.3453L11.8471 9.85938L9.85838 11.8481Z" fill="#994C0F"/>
<path d="M10.8527 10.8537L13.8359 13.8369L14.5816 13.0911L14.3331 12.3453L11.8471 9.85938L10.8527 10.8537Z" fill="#713708"/>
<path d="M9.84375 21.8906V23.2969C9.84375 23.6906 9.53442 24 9.14062 24H4.92188V19.7812H7.73438C8.90161 19.7812 9.84375 20.7234 9.84375 21.8906Z" fill="#994C10"/>
<path d="M19.4838 23.063C20.4384 24.2363 22.1885 24.3159 23.2525 23.2519C24.3165 22.188 24.2369 20.4378 23.0635 19.4833L14.3331 12.3438L12.3443 14.3325L19.4838 23.063Z" fill="#BF6015"/>
<path d="M14.3331 12.3438L13.3387 13.3381L23.2525 23.2519C24.3165 22.1879 24.2369 20.4378 23.0635 19.4832L14.3331 12.3438Z" fill="#994C10"/>
<path d="M16.3217 7.37234L10.3556 1.40625L1.40646 10.3554L7.37255 16.3215L16.3217 7.37234Z" fill="#FEDB41"/>
<path d="M16.3217 7.37234L10.3556 1.40625L5.881 5.88083L11.8471 11.8469L16.3217 7.37234Z" fill="#FCBF29"/>
<path d="M8.36681 17.316C8.916 16.7668 8.916 15.8765 8.36681 15.3273L2.40061 9.36111C1.85142 8.81192 0.961031 8.81192 0.411891 9.36111C-0.137297 9.9103 -0.137297 10.8007 0.411891 11.3498L6.37809 17.316C6.92728 17.8652 7.81767 17.8652 8.36681 17.316Z" fill="#BF6015"/>
<path d="M17.3161 8.36681C17.8653 7.81763 17.8653 6.92723 17.3161 6.37809L11.3499 0.411891C10.8008 -0.137297 9.91036 -0.137297 9.36122 0.411891C8.81203 0.961078 8.81203 1.85147 9.36122 2.40061L15.3274 8.36681C15.8766 8.916 16.767 8.916 17.3161 8.36681Z" fill="#994C10"/>
</g>
<defs>
<clipPath id="clip0_24530_166819">
<rect width="24" height="24" fill="white"/>
</clipPath>
</defs>
</svg>
