<svg width="14" height="14" viewBox="0 0 14 14" fill="none" xmlns="http://www.w3.org/2000/svg">
<g clip-path="url(#clip0_24530_159958)">
<path d="M3.5 8.3125H2.1875C1.70425 8.3125 1.3125 8.70425 1.3125 9.1875V12.25C1.3125 12.7332 1.70425 13.125 2.1875 13.125H3.5C3.98325 13.125 4.375 12.7332 4.375 12.25V9.1875C4.375 8.70425 3.98325 8.3125 3.5 8.3125Z" fill="#EEB32A"/>
<path d="M7.875 6.5625H6.125C5.64175 6.5625 5.25 6.95425 5.25 7.4375V12.25C5.25 12.7332 5.64175 13.125 6.125 13.125H7.875C8.35825 13.125 8.75 12.7332 8.75 12.25V7.4375C8.75 6.95425 8.35825 6.5625 7.875 6.5625Z" fill="#6CA1FC"/>
<path d="M11.8125 8.75H10.5C10.0168 8.75 9.625 9.14175 9.625 9.625V12.25C9.625 12.7332 10.0168 13.125 10.5 13.125H11.8125C12.2957 13.125 12.6875 12.7332 12.6875 12.25V9.625C12.6875 9.14175 12.2957 8.75 11.8125 8.75Z" fill="#EEB32A"/>
<path d="M10.0314 4.81251C10.1521 4.60338 10.4194 4.53163 10.629 4.65238L11.0079 4.87113C11.2174 4.99188 11.2888 5.25963 11.168 5.46876C11.0473 5.67788 10.7799 5.74963 10.5704 5.62888L10.1915 5.41013C9.98195 5.28938 9.91064 5.02163 10.0314 4.81251Z" fill="#FF4755"/>
<path d="M10.0314 1.31251C10.1521 1.52163 10.4194 1.59338 10.629 1.47263L11.0079 1.25388C11.2174 1.13313 11.2888 0.865384 11.168 0.656259C11.0473 0.447134 10.7799 0.375384 10.5704 0.496134L10.1915 0.714884C9.98195 0.835634 9.91064 1.10338 10.0314 1.31251Z" fill="#FF4755"/>
<path d="M10.5 3.0625C10.5 3.304 10.6956 3.5 10.9375 3.5H11.375C11.6169 3.5 11.8125 3.304 11.8125 3.0625C11.8125 2.821 11.6169 2.625 11.375 2.625H10.9375C10.6956 2.625 10.5 2.821 10.5 3.0625Z" fill="#FF4755"/>
<path d="M3.96898 4.81251C3.84823 4.60338 3.58091 4.53163 3.37135 4.65238L2.99248 4.87113C2.78291 4.99188 2.7116 5.25963 2.83235 5.46876C2.9531 5.67788 3.22041 5.74963 3.42998 5.62888L3.80885 5.41013C4.01841 5.28938 4.08973 5.02163 3.96898 4.81251Z" fill="#FF4755"/>
<path d="M3.96898 1.31251C3.84823 1.52163 3.58091 1.59338 3.37135 1.47263L2.99248 1.25388C2.78291 1.13313 2.7116 0.865384 2.83235 0.656259C2.9531 0.447134 3.22041 0.375384 3.42998 0.496134L3.80885 0.714884C4.01841 0.835634 4.08973 1.10338 3.96898 1.31251Z" fill="#FF4755"/>
<path d="M2.625 3.5H3.0625C3.30444 3.5 3.5 3.304 3.5 3.0625C3.5 2.821 3.30444 2.625 3.0625 2.625H2.625C2.38306 2.625 2.1875 2.821 2.1875 3.0625C2.1875 3.304 2.38306 3.5 2.625 3.5Z" fill="#FF4755"/>
<path d="M9.36367 2.72136L8.52148 3.54255L8.72055 4.70192C8.78617 5.0843 8.38455 5.37611 8.04111 5.19542L6.99986 4.64811L5.95861 5.19542C5.61517 5.37611 5.21355 5.0843 5.27917 4.70192L5.47823 3.54255L4.63605 2.72136C4.35823 2.45055 4.51136 1.97848 4.89549 1.92248L6.05967 1.75317L6.5803 0.698359C6.75224 0.350547 7.24836 0.350547 7.41986 0.698359L7.94048 1.75317L9.10467 1.92248C9.4888 1.97848 9.64192 2.45011 9.36411 2.72136H9.36367Z" fill="#FF4755"/>
</g>
<defs>
<clipPath id="clip0_24530_159958">
<rect width="14" height="14" fill="white"/>
</clipPath>
</defs>
</svg>
