<svg width="24" height="24" viewBox="0 0 24 24" fill="none" xmlns="http://www.w3.org/2000/svg">
<path fill-rule="evenodd" clip-rule="evenodd" d="M9.73828 2.012L17.7602 6.64344C18.0045 6.78444 18.1442 7.02659 18.1442 7.30864V16.5716C18.1442 16.8536 18.0044 17.0958 17.7602 17.2368L9.73828 21.8682C9.49401 22.0092 9.21445 22.0092 8.97019 21.8682L0.94828 17.2367C0.704014 17.0957 0.564186 16.8536 0.564186 16.5715V7.30864C0.564186 7.02659 0.704014 6.78444 0.94828 6.64344L8.97019 2.012C9.21445 1.871 9.49401 1.871 9.73828 2.012Z" fill="#F2D1A5"/>
<path fill-rule="evenodd" clip-rule="evenodd" d="M5.65772 13.8038L4.06875 12.8865C3.82448 12.7455 3.6847 12.5033 3.6847 12.2213V8.66797L6.23376 10.1397V13.4713C6.23376 13.6123 6.16387 13.7334 6.04176 13.8039C5.91961 13.8744 5.77982 13.8743 5.65772 13.8038Z" fill="#E3A76F"/>
<path fill-rule="evenodd" clip-rule="evenodd" d="M9.73823 2.012L17.7601 6.64339C17.8822 6.71394 17.9783 6.8097 18.0438 6.92314L9.35423 11.9401L0.664639 6.92314C0.730123 6.8097 0.826123 6.71394 0.948279 6.64339L8.97019 2.012C9.21445 1.871 9.49401 1.871 9.73823 2.012Z" fill="#E3A76F"/>
<path fill-rule="evenodd" clip-rule="evenodd" d="M3.6847 8.66867L6.23376 10.1404L15.0238 5.06548L12.4747 3.59375L3.6847 8.66867Z" fill="#C48958"/>
<path fill-rule="evenodd" clip-rule="evenodd" d="M18.0438 6.92188C18.1093 7.03531 18.1442 7.16633 18.1442 7.30733V16.5702C18.1442 16.8523 18.0044 17.0945 17.7602 17.2355L9.73828 21.8669C9.61617 21.9374 9.4852 21.9726 9.35423 21.9726V11.9388L18.0438 6.92188Z" fill="#ECBA78"/>
<path fill-rule="evenodd" clip-rule="evenodd" d="M22.9148 11.0698V21.3627C22.9148 21.7641 22.5875 22.0915 22.1861 22.0915H15.7854C15.384 22.0915 15.0566 21.7641 15.0566 21.3627L15.0566 11.0698C15.0566 10.8555 15.1387 10.6712 15.2979 10.5279L17.8709 8.21353C18.2011 7.91648 18.5415 7.69922 18.9856 7.69922C19.4298 7.69922 19.7702 7.91658 20.1004 8.21353L22.6734 10.5279C22.8327 10.6712 22.9148 10.8556 22.9148 11.0698Z" fill="#FE646F"/>
<path fill-rule="evenodd" clip-rule="evenodd" d="M22.9148 11.0698V21.3627C22.9148 21.7641 22.5875 22.0914 22.1861 22.0914H21.2485C21.6499 22.0914 21.9773 21.764 21.9773 21.3627V11.0698C21.9773 10.8556 21.8952 10.6712 21.7359 10.5279L19.1629 8.21353C18.9588 8.02997 18.7509 7.87687 18.5169 7.78669C18.6615 7.73095 18.816 7.69922 18.9857 7.69922C19.4299 7.69922 19.7703 7.91658 20.1005 8.21353L22.6735 10.5279C22.8327 10.6711 22.9148 10.8555 22.9148 11.0698Z" fill="#FD4755"/>
<path fill-rule="evenodd" clip-rule="evenodd" d="M18.183 10.0411C18.183 9.59772 18.5424 9.23828 18.9858 9.23828C19.4291 9.23828 19.7885 9.59767 19.7885 10.0411C19.7885 10.4844 19.4291 10.8438 18.9858 10.8438C18.5424 10.8438 18.183 10.4845 18.183 10.0411Z" fill="#ECEFF1"/>
<path fill-rule="evenodd" clip-rule="evenodd" d="M18.183 10.0411C18.183 9.59772 18.5424 9.23828 18.9858 9.23828C19.0388 9.23828 19.0906 9.24348 19.1408 9.25328C18.7716 9.32552 18.493 9.65073 18.493 10.041C18.493 10.4313 18.7717 10.7566 19.1408 10.8288C19.0907 10.8386 19.0388 10.8438 18.9858 10.8438C18.5424 10.8438 18.183 10.4845 18.183 10.0411Z" fill="#D1D1D6"/>
<path fill-rule="evenodd" clip-rule="evenodd" d="M19.7056 6.67185C20.2692 5.97796 20.8943 5.43514 21.4495 5.1185C22.1036 4.74538 22.7022 4.67207 23.09 4.98707C23.4776 5.30183 23.5284 5.90272 23.2972 6.61972C23.1011 7.22793 22.6979 7.95111 22.1343 8.6451C21.5707 9.33899 20.9456 9.8818 20.3904 10.1984C19.7363 10.5716 19.1377 10.6449 18.7499 10.3299C18.3623 10.0151 18.3115 9.41422 18.5427 8.69722C18.7388 8.08897 19.142 7.36579 19.7056 6.67185ZM21.8186 5.76885C21.3392 6.04232 20.7903 6.52218 20.2857 7.1435C19.7811 7.76474 19.424 8.40032 19.2546 8.92569C19.1203 9.34232 19.0987 9.64991 19.2216 9.74975C19.3442 9.84936 19.6409 9.76499 20.0212 9.548C20.5007 9.27454 21.0495 8.79468 21.5542 8.17335C22.0588 7.55211 22.4159 6.91653 22.5853 6.39116C22.7196 5.97453 22.7412 5.66694 22.6183 5.5671C22.4957 5.46749 22.1991 5.55186 21.8186 5.76885Z" fill="#837683"/>
<path fill-rule="evenodd" clip-rule="evenodd" d="M18.4949 9.98558C18.3735 9.69453 18.3762 9.31203 18.4899 8.87891H19.2705C19.2651 8.89503 19.2598 8.91106 19.2546 8.927C19.2171 9.0433 19.1884 9.15111 19.1692 9.24828C18.8039 9.30617 18.5205 9.61048 18.4949 9.98558Z" fill="#685E68"/>
<path fill-rule="evenodd" clip-rule="evenodd" d="M17.6135 8.44514L17.871 8.21353C18.2012 7.91648 18.5416 7.69922 18.9857 7.69922C19.4299 7.69922 19.7703 7.91658 20.1005 8.21353L20.5997 8.6625L19.5492 9.46838C19.4043 9.3255 19.2053 9.23733 18.9857 9.23733C18.7593 9.23733 18.5548 9.33113 18.4088 9.48192L17.6135 8.44514Z" fill="#FE646F"/>
<path fill-rule="evenodd" clip-rule="evenodd" d="M18.5169 7.78669C18.6615 7.73095 18.816 7.69922 18.9857 7.69922C19.4299 7.69922 19.7703 7.91658 20.1005 8.21353L20.5997 8.6625L20.0937 9.05067L19.163 8.21348C18.9589 8.02997 18.7509 7.87687 18.5169 7.78669Z" fill="#FD4755"/>
<path d="M18.9858 19.1423C20.6032 19.1423 21.9143 17.8311 21.9143 16.2137C21.9143 14.5963 20.6032 13.2852 18.9858 13.2852C17.3684 13.2852 16.0572 14.5963 16.0572 16.2137C16.0572 17.8311 17.3684 19.1423 18.9858 19.1423Z" fill="#FFC338"/>
<path fill-rule="evenodd" clip-rule="evenodd" d="M18.9858 13.2852C19.0981 13.2852 19.2089 13.2917 19.3179 13.304C17.8569 13.469 16.7215 14.7086 16.7215 16.2137C16.7215 17.7188 17.8569 18.9585 19.3179 19.1234C19.2089 19.1358 19.0981 19.1423 18.9858 19.1423C17.3684 19.1423 16.0572 17.8311 16.0572 16.2137C16.0572 14.5963 17.3684 13.2852 18.9858 13.2852Z" fill="#F5B829"/>
<path fill-rule="evenodd" clip-rule="evenodd" d="M20.1937 15.1778C20.2737 15.3687 20.1839 15.5884 19.993 15.6685C19.8021 15.7486 19.5824 15.6588 19.5022 15.4679C19.4321 15.3008 19.299 15.2043 19.1529 15.1673C19.0559 15.1427 18.9549 15.1411 18.8613 15.16C18.7722 15.1779 18.6908 15.2136 18.628 15.2647C18.5574 15.3221 18.5126 15.4045 18.5175 15.5061C18.5217 15.5932 18.5686 15.654 18.6341 15.6967C18.7431 15.7678 18.8989 15.8082 19.0485 15.8328C19.2895 15.8724 19.5535 15.939 19.7774 16.0741C20.0448 16.2355 20.2467 16.4791 20.2922 16.8541C20.2956 16.8814 20.2977 16.9157 20.2986 16.9565C20.3069 17.3035 20.1493 17.5615 19.9124 17.7413C19.7525 17.8626 19.5576 17.9429 19.3608 17.9864V18.0657C19.3608 18.2728 19.1929 18.4407 18.9858 18.4407C18.7787 18.4407 18.6108 18.2728 18.6108 18.0657V17.9787C18.4565 17.9401 18.3097 17.8775 18.1799 17.791C17.9422 17.6328 17.7601 17.399 17.683 17.0897C17.6336 16.8891 17.7563 16.6864 17.9569 16.6371C18.1575 16.5877 18.3602 16.7104 18.4095 16.911C18.4374 17.0228 18.5047 17.1083 18.5929 17.167C18.7095 17.2447 18.8608 17.2817 19.0153 17.278C19.0394 17.2774 19.0714 17.2748 19.1113 17.2699C19.2432 17.2539 19.3728 17.2137 19.4612 17.1466C19.5164 17.1047 19.5532 17.0474 19.5515 16.9742C19.5515 16.9713 19.5503 16.9607 19.548 16.942C19.5353 16.8371 19.4733 16.7657 19.3906 16.7157C19.2642 16.6394 19.0914 16.5979 18.9284 16.5712C18.694 16.5327 18.4386 16.462 18.2268 16.3237C17.9716 16.1571 17.7882 15.9102 17.7704 15.5413C17.7527 15.1773 17.9093 14.8855 18.1562 14.6847C18.2868 14.5786 18.4431 14.5001 18.6107 14.4528V14.3594C18.6107 14.1523 18.7786 13.9844 18.9857 13.9844C19.1928 13.9844 19.3607 14.1523 19.3607 14.3594V14.4477C19.7103 14.5436 20.026 14.7784 20.1937 15.1778Z" fill="#FFE177"/>
</svg>
