<svg width="24" height="24" viewBox="0 0 24 24" fill="none" xmlns="http://www.w3.org/2000/svg">
<g clip-path="url(#clip0_24530_166835)">
<path d="M18.6933 2.31762C19.4841 2.6809 20.2664 3.06527 21.0211 3.46371C22.4892 4.23387 23.3663 5.79246 23.4038 7.34496C23.4994 10.4481 23.4994 13.5512 23.4038 16.6543C23.3663 18.2073 22.4892 19.7654 21.0211 20.5356C18.6047 21.8153 15.9516 22.9093 13.523 23.747C12.5391 24.084 11.4778 24.084 10.4934 23.747C8.06485 22.9098 5.41172 21.8157 2.99531 20.5356C1.52672 19.7654 0.650158 18.2068 0.612658 16.6543C0.517033 13.5512 0.517033 10.4481 0.612658 7.34496C0.650158 5.79199 1.52672 4.23387 2.99531 3.46371C5.41172 2.18449 8.06438 1.09043 10.4934 0.252773C11.4778 -0.0842578 12.5386 -0.0842578 13.523 0.252773C14.2509 0.50543 14.9944 0.776836 15.7467 1.0698L18.6938 2.31762H18.6933Z" fill="#FAAB48"/>
<path d="M18.5536 5.77859C18.5536 4.47266 18.36 3.21219 18.0009 2.02391L15.7463 1.06906C14.9944 0.776094 14.2505 0.504687 13.5225 0.252031C13.1147 0.112344 12.6942 0.0317187 12.2709 0.0078125H11.7445C11.3213 0.0317187 10.9008 0.112813 10.493 0.252031C8.06438 1.08969 5.41172 2.18375 2.99531 3.46344C1.52672 4.23359 0.650158 5.79219 0.612658 7.34469C0.517033 10.4478 0.517033 13.5509 0.612658 16.6541C0.622033 17.052 0.687189 17.45 0.802971 17.8348C2.28281 18.4227 3.89672 18.7466 5.5861 18.7466C12.7481 18.7466 18.5541 12.9406 18.5541 5.77859H18.5536Z" fill="#F8C358"/>
<path d="M18.6933 2.31719C15.5686 3.32781 11.9091 4.65859 8.21813 6.31141C7.49297 6.63484 7.005 7.34594 6.97922 8.12453C6.92157 9.90391 6.90422 11.7442 6.92719 13.5606C6.93 13.8091 6.62907 13.9122 6.47672 13.7167C6.08672 13.2175 5.70422 12.722 5.33203 12.2341C5.27157 12.1548 5.1661 12.1333 5.0836 12.183C4.79391 12.3555 4.50891 12.5256 4.22953 12.6934C4.07297 12.7867 3.88032 12.6625 3.87938 12.4694C3.87 10.6591 3.91547 8.84312 4.01203 7.08344C4.05282 6.34094 4.51875 5.6425 5.20735 5.30406C8.74735 3.55563 12.5241 2.12734 15.7463 1.07031C15.7463 1.07031 17.0531 1.51891 18.6933 2.31813V2.31719Z" fill="white"/>
<path d="M18.1186 13.2539C15.1509 13.2539 12.7448 15.66 12.7448 18.6277C12.7448 21.5953 15.1509 24.0014 18.1186 24.0014C21.0862 24.0014 23.4923 21.5953 23.4923 18.6277C23.4923 15.66 21.0862 13.2539 18.1186 13.2539Z" fill="#2AD352"/>
<path d="M21.1584 17.7567L17.9381 21.1382C17.7609 21.3243 17.5158 21.4303 17.2584 21.4317H17.2542C16.9988 21.4317 16.7541 21.3281 16.5764 21.1448L14.8678 19.3842C14.5045 19.0096 14.5134 18.4115 14.888 18.0482C15.262 17.6849 15.8602 17.6938 16.2234 18.0684L17.2477 19.1235L19.7902 16.4535C20.1502 16.0757 20.7478 16.0607 21.1256 16.4207C21.5034 16.7803 21.5184 17.3784 21.1584 17.7562V17.7567Z" fill="white"/>
</g>
<defs>
<clipPath id="clip0_24530_166835">
<rect width="24" height="24" fill="white"/>
</clipPath>
</defs>
</svg>
