<svg width="20" height="20" viewBox="0 0 20 20" fill="none" xmlns="http://www.w3.org/2000/svg">
<path d="M14.667 18.472C13.7193 18.472 12.7929 18.191 12.0049 17.6645C11.2169 17.1379 10.6027 16.3896 10.2401 15.514C9.87738 14.6385 9.78249 13.675 9.96738 12.7455C10.1523 11.816 10.6086 10.9622 11.2788 10.2921C11.9489 9.62199 12.8027 9.16563 13.7322 8.98074C14.6617 8.79586 15.6251 8.89075 16.5007 9.25342C17.3762 9.61609 18.1246 10.2302 18.6511 11.0182C19.1776 11.8062 19.4586 12.7326 19.4586 13.6803C19.4571 14.9507 18.9518 16.1686 18.0535 17.0669C17.1552 17.9651 15.9373 18.4705 14.667 18.472ZM14.667 10.1387C13.9665 10.1387 13.2818 10.3464 12.6993 10.7356C12.1169 11.1247 11.663 11.6778 11.3949 12.325C11.1268 12.9722 11.0567 13.6843 11.1934 14.3713C11.33 15.0583 11.6673 15.6894 12.1626 16.1847C12.6579 16.68 13.289 17.0173 13.976 17.154C14.663 17.2906 15.3752 17.2205 16.0223 16.9524C16.6695 16.6844 17.2226 16.2304 17.6118 15.648C18.0009 15.0656 18.2086 14.3808 18.2086 13.6803C18.2075 12.7414 17.834 11.8412 17.1701 11.1772C16.5061 10.5133 15.6059 10.1398 14.667 10.1387Z" fill="#AFAFAF"/>
<path d="M13.8337 18.4723H3.83366C3.22601 18.4719 2.64337 18.2303 2.21369 17.8006C1.78402 17.371 1.54243 16.7883 1.54199 16.1807V2.84733C1.54243 2.23968 1.78402 1.65704 2.21369 1.22737C2.64337 0.79769 3.22601 0.556106 3.83366 0.555664H13.8337C14.4413 0.556106 15.0239 0.79769 15.4536 1.22737C15.8833 1.65704 16.1249 2.23968 16.1253 2.84733V9.59733C16.1253 9.76309 16.0595 9.92206 15.9423 10.0393C15.8251 10.1565 15.6661 10.2223 15.5003 10.2223C15.3346 10.2223 15.1756 10.1565 15.0584 10.0393C14.9412 9.92206 14.8753 9.76309 14.8753 9.59733V2.84733C14.8749 2.5712 14.765 2.3065 14.5697 2.11125C14.3745 1.91599 14.1098 1.8061 13.8337 1.80566H3.83366C3.55753 1.8061 3.29283 1.91599 3.09758 2.11125C2.90232 2.3065 2.79243 2.5712 2.79199 2.84733V16.1807C2.79243 16.4568 2.90232 16.7215 3.09758 16.9167C3.29283 17.112 3.55753 17.2219 3.83366 17.2223H13.8337C13.8977 17.2243 13.9618 17.2184 14.0245 17.2048C14.1163 17.1849 14.2115 17.1855 14.303 17.2067C14.3946 17.2279 14.4803 17.269 14.5541 17.3273C14.6279 17.3855 14.6878 17.4593 14.7297 17.5435C14.7715 17.6277 14.7942 17.72 14.7962 17.814C14.797 17.9646 14.7431 18.1104 14.6446 18.2243C14.546 18.3381 14.4095 18.4124 14.2603 18.4332C14.1198 18.4607 13.9768 18.4739 13.8337 18.4723Z" fill="#AFAFAF"/>
<path d="M11.3336 5.97266H5.50031C5.33454 5.97266 5.17557 5.90681 5.05836 5.7896C4.94115 5.67239 4.87531 5.51342 4.87531 5.34766C4.87531 5.1819 4.94115 5.02292 5.05836 4.90571C5.17557 4.7885 5.33454 4.72266 5.50031 4.72266H11.3336C11.4994 4.72266 11.6584 4.7885 11.7756 4.90571C11.8928 5.02292 11.9586 5.1819 11.9586 5.34766C11.9586 5.51342 11.8928 5.67239 11.7756 5.7896C11.6584 5.90681 11.4994 5.97266 11.3336 5.97266Z" fill="#AFAFAF"/>
<path d="M9.66697 9.30566H5.50031C5.33454 9.30566 5.17557 9.23982 5.05836 9.12261C4.94115 9.0054 4.87531 8.84642 4.87531 8.68066C4.87531 8.5149 4.94115 8.35593 5.05836 8.23872C5.17557 8.12151 5.33454 8.05566 5.50031 8.05566H9.66697C9.83273 8.05566 9.9917 8.12151 10.1089 8.23872C10.2261 8.35593 10.292 8.5149 10.292 8.68066C10.292 8.84642 10.2261 9.0054 10.1089 9.12261C9.9917 9.23982 9.83273 9.30566 9.66697 9.30566Z" fill="#AFAFAF"/>
<path d="M14.2504 15.1393C14.1683 15.1395 14.087 15.1234 14.0111 15.0919C13.9353 15.0604 13.8665 15.0142 13.8087 14.956L12.9754 14.1226C12.9139 14.0654 12.8647 13.9964 12.8305 13.9197C12.7964 13.8431 12.778 13.7603 12.7765 13.6764C12.775 13.5925 12.7905 13.5091 12.8219 13.4313C12.8534 13.3535 12.9001 13.2828 12.9595 13.2234C13.0188 13.1641 13.0895 13.1173 13.1674 13.0859C13.2452 13.0544 13.3285 13.039 13.4125 13.0405C13.4964 13.0419 13.5791 13.0603 13.6558 13.0945C13.7325 13.1286 13.8015 13.1779 13.8587 13.2393L14.2504 13.6301L15.4754 12.406C15.5326 12.3445 15.6016 12.2953 15.6782 12.2611C15.7549 12.227 15.8377 12.2086 15.9216 12.2071C16.0055 12.2056 16.0889 12.2211 16.1667 12.2525C16.2445 12.284 16.3152 12.3307 16.3746 12.3901C16.4339 12.4494 16.4807 12.5201 16.5121 12.598C16.5436 12.6758 16.559 12.7591 16.5575 12.8431C16.556 12.927 16.5377 13.0097 16.5035 13.0864C16.4693 13.1631 16.4201 13.2321 16.3587 13.2893L14.692 14.956C14.6342 15.0142 14.5654 15.0604 14.4896 15.0919C14.4138 15.1234 14.3324 15.1395 14.2504 15.1393Z" fill="#AFAFAF"/>
</svg>
