<svg width="24" height="24" viewBox="0 0 24 24" fill="none" xmlns="http://www.w3.org/2000/svg">
<g clip-path="url(#clip0_24530_166899)">
<path fill-rule="evenodd" clip-rule="evenodd" d="M16.8277 11.043H20.9227C21.3323 11.043 21.6817 11.2614 21.8298 11.6101L23.3717 15.2408C23.4173 15.3482 23.4375 15.4467 23.4375 15.5619V20.0538C23.4375 20.3749 23.1756 20.6368 22.8545 20.6368C16.8816 20.6368 12.1136 20.6368 6.14062 20.6368C5.71247 20.6368 5.3633 20.2876 5.3633 19.8594V17.0207H16.6269V11.2438C16.6268 11.1332 16.717 11.043 16.8277 11.043Z" fill="#FFE177"/>
<path fill-rule="evenodd" clip-rule="evenodd" d="M16.8277 11.043H17.4182C17.3076 11.043 17.2174 11.1332 17.2174 11.2438V20.6368H16.6268V11.2438C16.6268 11.1332 16.717 11.043 16.8277 11.043Z" fill="#FFC338"/>
<path fill-rule="evenodd" clip-rule="evenodd" d="M22.4511 17.5859H23.4375V19.2523H22.4511C22.303 19.2523 22.1823 19.1315 22.1823 18.9835V17.8547C22.1823 17.7066 22.303 17.5859 22.4511 17.5859Z" fill="#837683"/>
<path fill-rule="evenodd" clip-rule="evenodd" d="M23.0358 17.5859H23.4375V19.2523H23.0358V17.5859Z" fill="#685E68"/>
<path fill-rule="evenodd" clip-rule="evenodd" d="M21.9204 14.881L20.8708 12.4095C20.8258 12.3034 20.7273 12.2383 20.612 12.2383H18.1029C17.9481 12.2383 17.8218 12.3646 17.8218 12.5194V14.9908C17.8218 15.1457 17.9481 15.272 18.1029 15.272H21.6616C21.7589 15.272 21.8425 15.2271 21.8961 15.146C21.9498 15.0649 21.9585 14.9704 21.9204 14.881Z" fill="#ECEFF1"/>
<path fill-rule="evenodd" clip-rule="evenodd" d="M18.5046 12.2383H18.1029C17.9481 12.2383 17.8218 12.3646 17.8218 12.5194V14.9908C17.8218 15.1457 17.9481 15.272 18.1029 15.272H18.5046C18.3498 15.272 18.2235 15.1457 18.2235 14.9908V12.5194C18.2235 12.3646 18.3498 12.2383 18.5046 12.2383Z" fill="#D1D1D6"/>
<path d="M21.5903 20.7037C21.6375 19.8459 20.9804 19.1122 20.1226 19.065C19.2648 19.0177 18.5311 19.6749 18.4839 20.5327C18.4367 21.3905 19.0938 22.1242 19.9516 22.1714C20.8094 22.2187 21.5431 21.5615 21.5903 20.7037Z" fill="#685E68"/>
<path fill-rule="evenodd" clip-rule="evenodd" d="M20.0322 20.1055C19.7394 20.1055 19.5025 20.3424 19.5025 20.6352C19.5025 20.928 19.7394 21.1649 20.0322 21.1649C20.325 21.1649 20.5619 20.928 20.5619 20.6352C20.5619 20.3424 20.325 20.1055 20.0322 20.1055Z" fill="#A79BA7"/>
<path fill-rule="evenodd" clip-rule="evenodd" d="M4.15823 9.32425C4.15823 8.8967 4.50745 8.54688 4.93561 8.54688H8.64248H15.8494C16.2776 8.54688 16.6268 8.89614 16.6268 9.32425V20.6355H4.93561C4.50745 20.6355 4.15823 20.2862 4.15823 19.8581V9.32425Z" fill="#837683"/>
<path fill-rule="evenodd" clip-rule="evenodd" d="M4.15823 9.32425C4.15823 8.8967 4.50745 8.54688 4.93561 8.54688H5.97736C5.54925 8.54688 5.19998 8.8967 5.19998 9.32425V19.8581C5.19998 20.2862 5.5492 20.6355 5.97736 20.6355H4.93561C4.5075 20.6355 4.15823 20.2862 4.15823 19.8581V9.32425Z" fill="#685E68"/>
<path d="M10.2907 21.2348C10.6196 20.4414 10.243 19.5316 9.44956 19.2027C8.65613 18.8738 7.74632 19.2504 7.41744 20.0438C7.08857 20.8373 7.46516 21.7471 8.25859 22.076C9.05202 22.4048 9.96183 22.0282 10.2907 21.2348Z" fill="#685E68"/>
<path fill-rule="evenodd" clip-rule="evenodd" d="M8.84878 20.1055C8.556 20.1055 8.31905 20.3424 8.31905 20.6352C8.31905 20.928 8.556 21.1649 8.84878 21.1649C9.14156 21.1649 9.37851 20.928 9.37851 20.6352C9.37851 20.3424 9.14156 20.1055 8.84878 20.1055Z" fill="#A79BA7"/>
<path fill-rule="evenodd" clip-rule="evenodd" d="M0.9375 11.3711C0.730406 11.3711 0.5625 11.2032 0.5625 10.9961C0.5625 10.789 0.730406 10.6211 0.9375 10.6211H7.26937C7.47647 10.6211 7.64437 10.789 7.64437 10.9961C7.64437 11.2032 7.47647 11.3711 7.26937 11.3711H0.9375ZM0.9375 15.5195C0.730406 15.5195 0.5625 15.3516 0.5625 15.1445C0.5625 14.9374 0.730406 14.7695 0.9375 14.7695H4.15828C4.36538 14.7695 4.53328 14.9374 4.53328 15.1445C4.53328 15.3516 4.36538 15.5195 4.15828 15.5195H0.9375ZM2.67352 9.29688C2.46642 9.29688 2.29852 9.12897 2.29852 8.92188C2.29852 8.71478 2.46642 8.54688 2.67352 8.54688H9.00539C9.21248 8.54688 9.38039 8.71478 9.38039 8.92188C9.38039 9.12897 9.21248 9.29688 9.00539 9.29688H2.67352ZM1.99303 13.4453C1.78594 13.4453 1.61803 13.2774 1.61803 13.0703C1.61803 12.8632 1.78594 12.6953 1.99303 12.6953H6.08822C6.29531 12.6953 6.46322 12.8632 6.46322 13.0703C6.46322 13.2774 6.29531 13.4453 6.08822 13.4453H1.99303Z" fill="#FFE177"/>
<path d="M13.8506 10.4944C15.8366 8.50839 15.8366 5.28849 13.8506 3.30251C11.8646 1.31654 8.64472 1.31654 6.65874 3.30251C4.67277 5.28849 4.67277 8.50839 6.65874 10.4944C8.64472 12.4803 11.8646 12.4803 13.8506 10.4944Z" fill="#FFE177"/>
<path fill-rule="evenodd" clip-rule="evenodd" d="M10.2565 1.8125C13.0655 1.8125 15.3427 4.08969 15.3427 6.89867C15.3427 9.7077 13.0655 11.9848 10.2565 11.9848C10.1413 11.9848 10.0271 11.9806 9.91378 11.9731C12.563 11.7968 14.6573 9.59248 14.6573 6.89867C14.6573 4.20486 12.563 2.00052 9.91378 1.82422C10.0271 1.81667 10.1413 1.8125 10.2565 1.8125Z" fill="#FFD064"/>
<path d="M10.2564 10.5732C12.2862 10.5732 13.9317 8.92774 13.9317 6.89794C13.9317 4.86814 12.2862 3.22266 10.2564 3.22266C8.22663 3.22266 6.58115 4.86814 6.58115 6.89794C6.58115 8.92774 8.22663 10.5732 10.2564 10.5732Z" fill="#FFC338"/>
<path fill-rule="evenodd" clip-rule="evenodd" d="M10.2565 3.22266C8.2267 3.22266 6.5812 4.86811 6.5812 6.89789C6.5812 8.92767 8.22666 10.5732 10.2565 10.5732C10.3563 10.5732 10.4551 10.569 10.5529 10.5613C8.6617 10.4103 7.17403 8.82792 7.17403 6.89794C7.17403 4.96795 8.6617 3.38555 10.5529 3.23461C10.4551 3.22678 10.3563 3.22266 10.2565 3.22266Z" fill="#F5B829"/>
<path fill-rule="evenodd" clip-rule="evenodd" d="M11.6842 5.63842C11.7643 5.82934 11.6745 6.04905 11.4836 6.12916C11.2927 6.20922 11.073 6.11941 10.9928 5.92848C10.8918 5.68783 10.7001 5.54898 10.4895 5.49559C10.3542 5.46133 10.2129 5.45917 10.0816 5.48561C9.9548 5.51116 9.83817 5.56263 9.74728 5.63655C9.63619 5.72688 9.56569 5.85695 9.57347 6.01792C9.5805 6.16323 9.65681 6.26317 9.76317 6.33264C9.91303 6.43047 10.1213 6.48508 10.3199 6.5177C10.6125 6.56575 10.9321 6.64609 11.2006 6.80819C11.5128 6.99663 11.7482 7.28027 11.8012 7.71653C11.8052 7.74972 11.8078 7.78975 11.8088 7.83611C11.8184 8.23666 11.636 8.53483 11.3618 8.74286C11.1527 8.90153 10.8914 9.00109 10.6314 9.04825V9.22595C10.6314 9.43305 10.4635 9.60095 10.2564 9.60095C10.0493 9.60095 9.88144 9.43305 9.88144 9.22595V9.04089C9.67162 8.99734 9.4718 8.91756 9.29766 8.80155C9.01847 8.61559 8.80458 8.34119 8.71406 7.97814C8.6647 7.77752 8.78737 7.57483 8.988 7.52552C9.18862 7.47616 9.39131 7.59883 9.44062 7.79945C9.48187 7.96497 9.58097 8.09111 9.71072 8.17755C9.87351 8.28597 10.0829 8.33762 10.2957 8.33256C10.3308 8.33172 10.374 8.32825 10.4252 8.32202C10.6057 8.30013 10.785 8.24355 10.9107 8.14816C11.0032 8.07798 11.0648 7.98058 11.0617 7.85369C11.0616 7.8452 11.06 7.82894 11.057 7.80442C11.0369 7.6383 10.9412 7.52669 10.8139 7.44977C10.6428 7.34645 10.4144 7.29119 10.1997 7.25598C9.91641 7.20948 9.60853 7.12455 9.35592 6.95964C9.05981 6.76633 8.84709 6.48016 8.82637 6.05313C8.80584 5.62975 8.98809 5.29028 9.27558 5.05652C9.44728 4.91688 9.65714 4.81792 9.88144 4.765V4.57422C9.88144 4.36712 10.0493 4.19922 10.2564 4.19922C10.4635 4.19922 10.6314 4.36712 10.6314 4.57422V4.75961C10.6447 4.76261 10.6579 4.76575 10.6711 4.76908C11.0955 4.87661 11.4816 5.15561 11.6842 5.63842Z" fill="#FFE177"/>
</g>
<defs>
<clipPath id="clip0_24530_166899">
<rect width="24" height="24" fill="white"/>
</clipPath>
</defs>
</svg>
