<svg width="45" height="45" viewBox="0 0 45 45" fill="none" xmlns="http://www.w3.org/2000/svg">
<g clip-path="url(#clip0_22505_69080)">
<path d="M28.8479 0.121777L0.117453 28.8522C-0.0407541 29.0104 -0.0407541 29.2669 0.117453 29.4251L15.5695 44.8772C15.7277 45.0354 15.9842 45.0354 16.1424 44.8772L44.8728 16.1467C45.031 15.9885 45.031 15.732 44.8728 15.5738L29.4208 0.121775C29.2626 -0.0364318 29.0061 -0.0364308 28.8479 0.121777Z" fill="url(#paint0_linear_22505_69080)"/>
<path d="M29.1392 3.26562L41.7303 15.8568L15.8607 41.7264L3.26959 29.1352L29.1392 3.26562Z" fill="url(#paint1_linear_22505_69080)"/>
<path d="M31.7229 8.14022L37.2521 13.6694C36.9999 13.7889 36.7652 13.9542 36.5587 14.1669C35.6745 15.0748 35.6428 16.539 36.4901 17.4812C36.5903 17.5929 36.6984 17.693 36.8127 17.7818C37.0245 17.9462 37.05 18.2555 36.861 18.4445L18.4444 36.8611C18.2545 37.051 17.9461 37.0246 17.7817 36.8128C17.6929 36.6985 17.5927 36.5904 17.4811 36.4902C16.5389 35.643 15.0738 35.6755 14.1668 36.5588C14.0815 36.6423 14.0033 36.7302 13.933 36.8216C13.773 37.0299 13.4636 37.0466 13.2782 36.8602L8.14097 31.723C7.95465 31.5367 7.97135 31.2282 8.17965 31.0682C8.27105 30.9979 8.35894 30.9197 8.44244 30.8345C9.32662 29.9274 9.35826 28.4623 8.51099 27.5201C8.4108 27.4085 8.30269 27.3083 8.18844 27.2195C7.97662 27.0552 7.95113 26.7458 8.1401 26.5568L26.5558 8.14022C26.7457 7.95037 27.0542 7.97674 27.2185 8.18856C27.3073 8.30282 27.4075 8.41004 27.5191 8.51112C28.4613 9.35838 29.9264 9.32674 30.8335 8.44256C30.9187 8.35907 30.9969 8.27117 31.0672 8.17977C31.2272 7.97147 31.5366 7.95477 31.722 8.1411L31.7229 8.14022Z" fill="url(#paint2_linear_22505_69080)"/>
<path d="M22.5003 28.5717C25.8534 28.5717 28.5717 25.8534 28.5717 22.5002C28.5717 19.147 25.8534 16.4287 22.5003 16.4287C19.1471 16.4287 16.4288 19.147 16.4288 22.5002C16.4288 25.8534 19.1471 28.5717 22.5003 28.5717Z" fill="url(#paint3_linear_22505_69080)"/>
<path d="M30.5413 16.4809C31.6592 16.4809 32.5654 15.5746 32.5654 14.4567C32.5654 13.3388 31.6592 12.4326 30.5413 12.4326C29.4234 12.4326 28.5172 13.3388 28.5172 14.4567C28.5172 15.5746 29.4234 16.4809 30.5413 16.4809Z" fill="url(#paint4_linear_22505_69080)"/>
<path d="M14.4573 32.5717C15.5752 32.5717 16.4814 31.6654 16.4814 30.5476C16.4814 29.4297 15.5752 28.5234 14.4573 28.5234C13.3394 28.5234 12.4332 29.4297 12.4332 30.5476C12.4332 31.6654 13.3394 32.5717 14.4573 32.5717Z" fill="url(#paint5_linear_22505_69080)"/>
<path d="M44.5605 10.1953H0.439453C0.19675 10.1953 0 10.3921 0 10.6348V34.3652C0 34.6079 0.19675 34.8047 0.439453 34.8047H44.5605C44.8032 34.8047 45 34.6079 45 34.3652V10.6348C45 10.3921 44.8032 10.1953 44.5605 10.1953Z" fill="url(#paint6_linear_22505_69080)"/>
<path d="M42.3633 12.832V32.168H2.63672V12.832H42.3633Z" fill="url(#paint7_linear_22505_69080)"/>
<path d="M40.6046 18.5133V26.4867C40.6046 26.7565 40.3647 26.9587 40.0975 26.9209C39.9472 26.8998 39.7925 26.891 39.6352 26.8963C38.2816 26.9411 37.1654 28.0336 37.0934 29.3854C37.0837 29.5638 37.0916 29.7378 37.1162 29.9074C37.154 30.1729 36.9501 30.4102 36.682 30.4102H8.31709C8.04902 30.4102 7.84512 30.1729 7.88291 29.9074C7.90752 29.7378 7.91543 29.5629 7.90576 29.3854C7.83369 28.0327 6.71748 26.9411 5.36397 26.8963C5.20664 26.891 5.05195 26.8998 4.90166 26.9209C4.63447 26.9587 4.39453 26.7565 4.39453 26.4867V18.5133C4.39453 18.2435 4.63447 18.0413 4.90166 18.0791C5.05195 18.1002 5.20664 18.109 5.36397 18.1037C6.71748 18.0589 7.83369 16.9673 7.90576 15.6146C7.91543 15.4362 7.90752 15.2613 7.88291 15.0926C7.84512 14.8271 8.04902 14.5898 8.31709 14.5898H36.6812C36.9492 14.5898 37.1531 14.8271 37.1153 15.0926C37.0916 15.2622 37.0828 15.4362 37.0925 15.6146C37.1646 16.9673 38.2808 18.0589 39.6343 18.1037C39.7916 18.109 39.9463 18.1002 40.0966 18.0791C40.3638 18.0413 40.6037 18.2435 40.6037 18.5133H40.6046Z" fill="url(#paint8_linear_22505_69080)"/>
<path d="M22.5 29.0918C26.1405 29.0918 29.0918 26.1405 29.0918 22.5C29.0918 18.8595 26.1405 15.9082 22.5 15.9082C18.8595 15.9082 15.9082 18.8595 15.9082 22.5C15.9082 26.1405 18.8595 29.0918 22.5 29.0918Z" fill="url(#paint9_linear_22505_69080)"/>
<path d="M34.8486 24.6973C36.0621 24.6973 37.0459 23.7135 37.0459 22.5C37.0459 21.2865 36.0621 20.3027 34.8486 20.3027C33.6351 20.3027 32.6514 21.2865 32.6514 22.5C32.6514 23.7135 33.6351 24.6973 34.8486 24.6973Z" fill="url(#paint10_linear_22505_69080)"/>
<path d="M10.1514 24.6973C11.3649 24.6973 12.3486 23.7135 12.3486 22.5C12.3486 21.2865 11.3649 20.3027 10.1514 20.3027C8.93785 20.3027 7.9541 21.2865 7.9541 22.5C7.9541 23.7135 8.93785 24.6973 10.1514 24.6973Z" fill="url(#paint11_linear_22505_69080)"/>
<path d="M23.5457 19.9166V21.9073L25.9179 21.0082V22.106L23.5457 23.0051V23.615L25.9179 22.7159V23.8137L23.5457 24.7128V27.5402H21.2878V25.5688L18.9666 26.4486V25.3509L21.2878 24.4711V23.8611L18.9666 24.7409V23.6432L21.2878 22.7634V19.9166H18.528V18.1729H26.3573V19.9166H23.5457Z" fill="url(#paint12_linear_22505_69080)"/>
</g>
<defs>
<linearGradient id="paint0_linear_22505_69080" x1="14.4805" y1="14.4848" x2="30.5034" y2="30.5077" gradientUnits="userSpaceOnUse">
<stop stop-color="#91C553"/>
<stop offset="1" stop-color="#60A113"/>
</linearGradient>
<linearGradient id="paint1_linear_22505_69080" x1="16.2022" y1="16.1982" x2="28.7914" y2="28.7874" gradientUnits="userSpaceOnUse">
<stop stop-color="#408336"/>
<stop offset="1" stop-color="#0A4B00"/>
</linearGradient>
<linearGradient id="paint2_linear_22505_69080" x1="22.5003" y1="15.2112" x2="22.5003" y2="29.7803" gradientUnits="userSpaceOnUse">
<stop stop-color="#91C553"/>
<stop offset="1" stop-color="#60A113"/>
</linearGradient>
<linearGradient id="paint3_linear_22505_69080" x1="16.4244" y1="22.5002" x2="28.5663" y2="22.5002" gradientUnits="userSpaceOnUse">
<stop stop-color="#408336"/>
<stop offset="1" stop-color="#0A4B00"/>
</linearGradient>
<linearGradient id="paint4_linear_22505_69080" x1="20.4696" y1="11.1267" x2="24.5173" y2="11.1267" gradientUnits="userSpaceOnUse">
<stop stop-color="#408336"/>
<stop offset="1" stop-color="#0A4B00"/>
</linearGradient>
<linearGradient id="paint5_linear_22505_69080" x1="20.4705" y1="33.8767" x2="24.5182" y2="33.8767" gradientUnits="userSpaceOnUse">
<stop stop-color="#408336"/>
<stop offset="1" stop-color="#0A4B00"/>
</linearGradient>
<linearGradient id="paint6_linear_22505_69080" x1="5.22598" y1="5.22598" x2="39.774" y2="39.774" gradientUnits="userSpaceOnUse">
<stop stop-color="#AEED64"/>
<stop offset="1" stop-color="#78C918"/>
</linearGradient>
<linearGradient id="paint7_linear_22505_69080" x1="7.73437" y1="7.73438" x2="37.2656" y2="37.2656" gradientUnits="userSpaceOnUse">
<stop stop-color="#53AB46"/>
<stop offset="1" stop-color="#107300"/>
</linearGradient>
<linearGradient id="paint8_linear_22505_69080" x1="11.3625" y1="11.3625" x2="33.6366" y2="33.6366" gradientUnits="userSpaceOnUse">
<stop stop-color="#AEED64"/>
<stop offset="1" stop-color="#78C918"/>
</linearGradient>
<linearGradient id="paint9_linear_22505_69080" x1="17.8392" y1="27.1608" x2="27.1608" y2="17.8392" gradientUnits="userSpaceOnUse">
<stop stop-color="#53AB46"/>
<stop offset="1" stop-color="#107300"/>
</linearGradient>
<linearGradient id="paint10_linear_22505_69080" x1="20.9461" y1="11.7053" x2="24.0539" y2="8.59746" gradientUnits="userSpaceOnUse">
<stop stop-color="#53AB46"/>
<stop offset="1" stop-color="#107300"/>
</linearGradient>
<linearGradient id="paint11_linear_22505_69080" x1="20.9461" y1="36.4025" x2="24.0539" y2="33.2947" gradientUnits="userSpaceOnUse">
<stop stop-color="#53AB46"/>
<stop offset="1" stop-color="#107300"/>
</linearGradient>
<linearGradient id="paint12_linear_22505_69080" x1="18.5254" y1="18.1755" x2="25.7183" y2="25.3676" gradientUnits="userSpaceOnUse">
<stop stop-color="#AEED64"/>
<stop offset="1" stop-color="#78C918"/>
</linearGradient>
<clipPath id="clip0_22505_69080">
<rect width="45" height="45" fill="white"/>
</clipPath>
</defs>
</svg>
