<svg width="20" height="20" viewBox="0 0 20 20" fill="none" xmlns="http://www.w3.org/2000/svg">
<g clip-path="url(#clip0_26823_50573)">
<path d="M19.1667 18.3333H4.16667C3.50363 18.3333 2.86774 18.0699 2.3989 17.6011C1.93006 17.1323 1.66667 16.4964 1.66667 15.8333V0.833333C1.66667 0.61232 1.57887 0.400358 1.42259 0.244078C1.26631 0.0877974 1.05435 0 0.833333 0C0.61232 0 0.400358 0.0877974 0.244078 0.244078C0.0877974 0.400358 0 0.61232 0 0.833333L0 15.8333C0.00132321 16.938 0.440735 17.997 1.22185 18.7782C2.00296 19.5593 3.062 19.9987 4.16667 20H19.1667C19.3877 20 19.5996 19.9122 19.7559 19.7559C19.9122 19.5996 20 19.3877 20 19.1667C20 18.9457 19.9122 18.7337 19.7559 18.5774C19.5996 18.4211 19.3877 18.3333 19.1667 18.3333Z" fill="#AFAFAF"/>
<path d="M5.00002 16.667C5.22103 16.667 5.433 16.5792 5.58928 16.4229C5.74556 16.2666 5.83335 16.0547 5.83335 15.8337V10.0003C5.83335 9.77931 5.74556 9.56735 5.58928 9.41107C5.433 9.25479 5.22103 9.16699 5.00002 9.16699C4.77901 9.16699 4.56705 9.25479 4.41076 9.41107C4.25448 9.56735 4.16669 9.77931 4.16669 10.0003V15.8337C4.16669 16.0547 4.25448 16.2666 4.41076 16.4229C4.56705 16.5792 4.77901 16.667 5.00002 16.667Z" fill="#AFAFAF"/>
<path d="M8.33331 8.33333V15.8333C8.33331 16.0543 8.42111 16.2663 8.57739 16.4226C8.73367 16.5789 8.94563 16.6667 9.16665 16.6667C9.38766 16.6667 9.59962 16.5789 9.7559 16.4226C9.91218 16.2663 9.99998 16.0543 9.99998 15.8333V8.33333C9.99998 8.11232 9.91218 7.90036 9.7559 7.74408C9.59962 7.5878 9.38766 7.5 9.16665 7.5C8.94563 7.5 8.73367 7.5878 8.57739 7.74408C8.42111 7.90036 8.33331 8.11232 8.33331 8.33333Z" fill="#AFAFAF"/>
<path d="M12.5 10.8333V15.8333C12.5 16.0543 12.5878 16.2663 12.7441 16.4226C12.9004 16.5789 13.1123 16.6667 13.3333 16.6667C13.5543 16.6667 13.7663 16.5789 13.9226 16.4226C14.0789 16.2663 14.1667 16.0543 14.1667 15.8333V10.8333C14.1667 10.6123 14.0789 10.4004 13.9226 10.2441C13.7663 10.0878 13.5543 10 13.3333 10C13.1123 10 12.9004 10.0878 12.7441 10.2441C12.5878 10.4004 12.5 10.6123 12.5 10.8333Z" fill="#AFAFAF"/>
<path d="M16.6667 7.50033V15.8337C16.6667 16.0547 16.7545 16.2666 16.9108 16.4229C17.067 16.5792 17.279 16.667 17.5 16.667C17.721 16.667 17.933 16.5792 18.0893 16.4229C18.2456 16.2666 18.3334 16.0547 18.3334 15.8337V7.50033C18.3334 7.27931 18.2456 7.06735 18.0893 6.91107C17.933 6.75479 17.721 6.66699 17.5 6.66699C17.279 6.66699 17.067 6.75479 16.9108 6.91107C16.7545 7.06735 16.6667 7.27931 16.6667 7.50033Z" fill="#AFAFAF"/>
<path d="M5.00003 7.49953C5.22102 7.49948 5.43295 7.41165 5.58919 7.25536L8.57753 4.26703C8.73636 4.11571 8.94732 4.03131 9.16669 4.03131C9.38606 4.03131 9.59702 4.11571 9.75586 4.26703L11.5659 6.07703C12.0347 6.5457 12.6704 6.80899 13.3334 6.80899C13.9963 6.80899 14.632 6.5457 15.1009 6.07703L19.7559 1.42203C19.9077 1.26486 19.9917 1.05436 19.9898 0.835858C19.9879 0.617361 19.9002 0.40835 19.7457 0.253843C19.5912 0.0993366 19.3822 0.0116958 19.1637 0.00979713C18.9452 0.00789844 18.7347 0.0918938 18.5775 0.243692L13.9225 4.89786C13.7663 5.05408 13.5543 5.14185 13.3334 5.14185C13.1124 5.14185 12.9005 5.05408 12.7442 4.89786L10.9342 3.08869C10.4654 2.62001 9.8296 2.35673 9.16669 2.35673C8.50378 2.35673 7.86801 2.62001 7.39919 3.08869L4.41086 6.07703C4.29435 6.19357 4.21501 6.34204 4.18287 6.50367C4.15073 6.66529 4.16724 6.83282 4.23029 6.98507C4.29335 7.13732 4.40014 7.26746 4.53714 7.35903C4.67415 7.4506 4.83523 7.49949 5.00003 7.49953Z" fill="#AFAFAF"/>
</g>
<defs>
<clipPath id="clip0_26823_50573">
<rect width="20" height="20" fill="white"/>
</clipPath>
</defs>
</svg>
