<svg width="24" height="24" viewBox="0 0 24 24" fill="none" xmlns="http://www.w3.org/2000/svg">
<path d="M22 2.5V4.5H18V2.5C18 1.96957 18.2107 1.46086 18.5858 1.08579C18.9609 0.710714 19.4696 0.5 20 0.5C20.5304 0.5 21.0391 0.710714 21.4142 1.08579C21.7893 1.46086 22 1.96957 22 2.5Z" fill="#C6C3D8"/>
<path d="M20 0.5C19.4696 0.5 18.9609 0.710714 18.5858 1.08579C18.2107 1.46086 18 1.96957 18 2.5V23.5H1.5V2.5C1.5 1.96957 1.71071 1.46086 2.08579 1.08579C2.46086 0.710714 2.96957 0.5 3.5 0.5H20Z" fill="#DAD7E5"/>
<path d="M20 0.499891C19.4696 0.499891 18.9609 0.710605 18.5858 1.08568C18.2107 1.46075 18 1.96946 18 2.49989V22.4999C13.8891 22.4999 9.94666 20.8669 7.03985 17.96C4.13304 15.0532 2.5 11.1107 2.5 6.99989C2.5 0.914891 2.44 1.20489 2.675 0.679891C3.1 0.419891 1.11 0.499891 20 0.499891Z" fill="#EDEBF2"/>
<path d="M22 2.59568V3.50068H21C20.6664 3.49999 20.3383 3.41587 20.0455 3.25597C19.7528 3.09608 19.5046 2.8655 19.3237 2.58521C19.1429 2.30493 19.0349 1.98386 19.0098 1.65122C18.9847 1.31858 19.0432 0.984942 19.18 0.680684C19.4917 0.540142 19.8342 0.481852 20.1748 0.511379C20.5155 0.540906 20.8428 0.657265 21.1257 0.849345C21.4085 1.04142 21.6374 1.30281 21.7905 1.60854C21.9436 1.91427 22.0157 2.25414 22 2.59568Z" fill="#DAD7E5"/>
<path d="M11 18.5H4C3.86739 18.5 3.74021 18.4473 3.64645 18.3536C3.55268 18.2598 3.5 18.1326 3.5 18C3.5 17.8674 3.55268 17.7402 3.64645 17.6464C3.74021 17.5527 3.86739 17.5 4 17.5H11C11.1326 17.5 11.2598 17.5527 11.3536 17.6464C11.4473 17.7402 11.5 17.8674 11.5 18C11.5 18.1326 11.4473 18.2598 11.3536 18.3536C11.2598 18.4473 11.1326 18.5 11 18.5Z" fill="#425B72"/>
<path d="M11 21H4C3.86739 21 3.74021 20.9473 3.64645 20.8536C3.55268 20.7598 3.5 20.6326 3.5 20.5C3.5 20.3674 3.55268 20.2402 3.64645 20.1464C3.74021 20.0527 3.86739 20 4 20H11C11.1326 20 11.2598 20.0527 11.3536 20.1464C11.4473 20.2402 11.5 20.3674 11.5 20.5C11.5 20.6326 11.4473 20.7598 11.3536 20.8536C11.2598 20.9473 11.1326 21 11 21Z" fill="#425B72"/>
<path d="M11 16H4C3.86739 16 3.74021 15.9473 3.64645 15.8536C3.55268 15.7598 3.5 15.6326 3.5 15.5C3.5 15.3674 3.55268 15.2402 3.64645 15.1464C3.74021 15.0527 3.86739 15 4 15H11C11.1326 15 11.2598 15.0527 11.3536 15.1464C11.4473 15.2402 11.5 15.3674 11.5 15.5C11.5 15.6326 11.4473 15.7598 11.3536 15.8536C11.2598 15.9473 11.1326 16 11 16Z" fill="#425B72"/>
<path d="M8 13.5H4C3.86739 13.5 3.74021 13.4473 3.64645 13.3536C3.55268 13.2598 3.5 13.1326 3.5 13C3.5 12.8674 3.55268 12.7402 3.64645 12.6464C3.74021 12.5527 3.86739 12.5 4 12.5H8C8.13261 12.5 8.25979 12.5527 8.35355 12.6464C8.44732 12.7402 8.5 12.8674 8.5 13C8.5 13.1326 8.44732 13.2598 8.35355 13.3536C8.25979 13.4473 8.13261 13.5 8 13.5Z" fill="#425B72"/>
<path d="M18 21.5C20.4853 21.5 22.5 19.4853 22.5 17C22.5 14.5147 20.4853 12.5 18 12.5C15.5147 12.5 13.5 14.5147 13.5 17C13.5 19.4853 15.5147 21.5 18 21.5Z" fill="#6FABE6"/>
<path d="M15 5.5H12C11.8674 5.5 11.7402 5.44732 11.6464 5.35355C11.5527 5.25979 11.5 5.13261 11.5 5C11.5 4.86739 11.5527 4.74021 11.6464 4.64645C11.7402 4.55268 11.8674 4.5 12 4.5H15C15.1326 4.5 15.2598 4.55268 15.3536 4.64645C15.4473 4.74021 15.5 4.86739 15.5 5C15.5 5.13261 15.4473 5.25979 15.3536 5.35355C15.2598 5.44732 15.1326 5.5 15 5.5Z" fill="#F26674"/>
<path d="M13 9V5C13 4.86739 13.0527 4.74021 13.1464 4.64645C13.2402 4.55268 13.3674 4.5 13.5 4.5C13.6326 4.5 13.7598 4.55268 13.8536 4.64645C13.9473 4.74021 14 4.86739 14 5V9C14 9.13261 13.9473 9.25979 13.8536 9.35355C13.7598 9.44732 13.6326 9.5 13.5 9.5C13.3674 9.5 13.2402 9.44732 13.1464 9.35355C13.0527 9.25979 13 9.13261 13 9Z" fill="#F26674"/>
<path d="M11.03 9.17551L10 6.42551L8.97 9.17551C8.92358 9.30016 8.82955 9.40127 8.70859 9.45659C8.58763 9.51191 8.44965 9.51692 8.325 9.47051C8.20035 9.42409 8.09924 9.33006 8.04391 9.2091C7.98859 9.08814 7.98358 8.95016 8.03 8.82551L9.53 4.82551C9.56503 4.72898 9.62894 4.64558 9.71303 4.58665C9.79711 4.52771 9.89731 4.49609 10 4.49609C10.1027 4.49609 10.2029 4.52771 10.287 4.58665C10.3711 4.64558 10.435 4.72898 10.47 4.82551L11.97 8.82551C12.0164 8.95016 12.0114 9.08814 11.9561 9.2091C11.9008 9.33006 11.7996 9.42409 11.675 9.47051C11.5503 9.51692 11.4124 9.51191 11.2914 9.45659C11.1704 9.40127 11.0764 9.30016 11.03 9.17551Z" fill="#F26674"/>
<path d="M11 8.5H9C8.86739 8.5 8.74021 8.44732 8.64645 8.35355C8.55268 8.25979 8.5 8.13261 8.5 8C8.5 7.86739 8.55268 7.74021 8.64645 7.64645C8.74021 7.55268 8.86739 7.5 9 7.5H11C11.1326 7.5 11.2598 7.55268 11.3536 7.64645C11.4473 7.74021 11.5 7.86739 11.5 8C11.5 8.13261 11.4473 8.25979 11.3536 8.35355C11.2598 8.44732 11.1326 8.5 11 8.5Z" fill="#F26674"/>
<path d="M6 9.50152C5.525 9.50152 5.645 9.47652 4.03 5.17652C3.98358 5.05187 3.98859 4.91389 4.04391 4.79293C4.09924 4.67196 4.20034 4.57794 4.325 4.53152C4.44965 4.48511 4.58763 4.49012 4.70859 4.54544C4.82955 4.60076 4.92358 4.70187 4.97 4.82652L6 7.57652L7.03 4.82652C7.07641 4.70187 7.17044 4.60076 7.2914 4.54544C7.41236 4.49012 7.55035 4.48511 7.675 4.53152C7.79965 4.57794 7.90076 4.67196 7.95608 4.79293C8.0114 4.91389 8.01641 5.05187 7.97 5.17652C6.345 9.50152 6.465 9.50152 6 9.50152Z" fill="#F26674"/>
<path d="M22.5 16.9982C22.496 17.8258 22.266 18.6367 21.835 19.3432C20.973 19.8631 19.9617 20.079 18.9625 19.9564C17.9634 19.8338 17.0343 19.3797 16.3236 18.6667C15.613 17.9538 15.1619 17.0232 15.0425 16.0237C14.9231 15.0242 15.1423 14.0135 15.665 13.1532C16.3473 12.7391 17.1274 12.5138 17.9255 12.5006C18.7235 12.4874 19.5107 12.6867 20.2063 13.078C20.9019 13.4693 21.481 14.0386 21.884 14.7275C22.2871 15.4164 22.4997 16.2001 22.5 16.9982Z" fill="#82BCF4"/>
<path d="M16.5 16.5C16.3022 16.5 16.1089 16.4414 15.9444 16.3315C15.78 16.2216 15.6518 16.0654 15.5761 15.8827C15.5004 15.7 15.4806 15.4989 15.5192 15.3049C15.5578 15.1109 15.653 14.9327 15.7929 14.7929C15.9327 14.653 16.1109 14.5578 16.3049 14.5192C16.4989 14.4806 16.7 14.5004 16.8827 14.5761C17.0654 14.6518 17.2216 14.78 17.3315 14.9444C17.4414 15.1089 17.5 15.3022 17.5 15.5C17.5 15.7652 17.3946 16.0196 17.2071 16.2071C17.0196 16.3946 16.7652 16.5 16.5 16.5Z" fill="#EDEBF2"/>
<path d="M19.5 19.5C19.3022 19.5 19.1089 19.4414 18.9444 19.3315C18.78 19.2216 18.6518 19.0654 18.5761 18.8827C18.5004 18.7 18.4806 18.4989 18.5192 18.3049C18.5578 18.1109 18.653 17.9327 18.7929 17.7929C18.9327 17.653 19.1109 17.5578 19.3049 17.5192C19.4989 17.4806 19.7 17.5004 19.8827 17.5761C20.0654 17.6518 20.2216 17.78 20.3315 17.9444C20.4414 18.1089 20.5 18.3022 20.5 18.5C20.5 18.7652 20.3946 19.0196 20.2071 19.2071C20.0196 19.3946 19.7652 19.5 19.5 19.5Z" fill="#EDEBF2"/>
<path d="M16.4 19.5012C16.3054 19.5027 16.2124 19.4773 16.1316 19.428C16.0509 19.3787 15.9858 19.3075 15.9439 19.2226C15.9021 19.1378 15.8851 19.0429 15.895 18.9488C15.9049 18.8547 15.9413 18.7654 16 18.6912L19.2 14.6912C19.2829 14.5851 19.4045 14.5163 19.5381 14.4999C19.6718 14.4835 19.8064 14.5208 19.9125 14.6037C20.0186 14.6866 20.0874 14.8082 20.1038 14.9418C20.1202 15.0754 20.0829 15.2101 20 15.3162C16.57 19.5912 16.74 19.5012 16.4 19.5012Z" fill="#EDEBF2"/>
</svg>
