<svg width="14" height="14" viewBox="0 0 14 14" fill="none" xmlns="http://www.w3.org/2000/svg">
<g clip-path="url(#clip0_24530_160600)">
<path d="M6.98835 11.1173C10.0583 11.1173 12.547 8.62862 12.547 5.55866C12.547 2.4887 10.0583 0 6.98835 0C3.91839 0 1.42969 2.4887 1.42969 5.55866C1.42969 8.62862 3.91839 11.1173 6.98835 11.1173Z" fill="#FFD15C"/>
<path d="M2.48486 8.8125L0.572266 12.1279L2.80455 12.0094L3.81872 14.0019L5.58801 10.9345C4.3203 10.6066 3.23171 9.84321 2.48486 8.8125Z" fill="#40596B"/>
<path d="M11.5031 8.79688C10.7617 9.83034 9.67316 10.5965 8.4082 10.9299L10.183 14.0028L11.1972 12.0103L13.4295 12.1288L11.5031 8.79688Z" fill="#40596B"/>
<path d="M6.98812 9.58952C9.21335 9.58952 11.0173 7.78561 11.0173 5.56038C11.0173 3.33515 9.21335 1.53125 6.98812 1.53125C4.76289 1.53125 2.95898 3.33515 2.95898 5.56038C2.95898 7.78561 4.76289 9.58952 6.98812 9.58952Z" fill="white"/>
<path d="M9.74816 5.12404C9.87218 5.00278 9.80328 4.79058 9.63242 4.76577L8.04226 4.53428C7.97336 4.52325 7.91549 4.48191 7.88517 4.41853L7.17415 2.97719C7.09698 2.8201 6.87375 2.8201 6.79659 2.97719L6.08832 4.41853C6.05801 4.47916 5.99738 4.52325 5.93123 4.53428L4.34108 4.76577C4.17021 4.79058 4.10131 5.00278 4.22533 5.12404L5.37454 6.24569C5.42415 6.2953 5.4462 6.3642 5.43517 6.43034L5.16509 8.01223C5.13478 8.1831 5.31667 8.31538 5.471 8.2327L6.89305 7.48585C6.95368 7.45278 7.02809 7.45278 7.08872 7.48585L8.51076 8.2327C8.66509 8.31262 8.84423 8.1831 8.81667 8.01223L8.54383 6.43034C8.53281 6.36144 8.55486 6.29254 8.60446 6.24569L9.74816 5.12404Z" fill="#FFC053"/>
</g>
<defs>
<clipPath id="clip0_24530_160600">
<rect width="14" height="14" fill="white"/>
</clipPath>
</defs>
</svg>
