<svg width="16" height="16" viewBox="0 0 16 16" fill="none" xmlns="http://www.w3.org/2000/svg">
<path d="M14.0666 1.93286C13.8806 1.74439 13.659 1.59475 13.4146 1.49262C13.1703 1.39048 12.9081 1.33789 12.6433 1.33789C12.3785 1.33789 12.1163 1.39048 11.872 1.49262C11.6276 1.59475 11.406 1.74439 11.22 1.93286L9.93997 3.23286L12.7666 6.05952L14.0466 4.77952C14.2364 4.59481 14.3876 4.37424 14.4915 4.13063C14.5953 3.88701 14.6498 3.62519 14.6516 3.36037C14.6535 3.09555 14.6027 2.83299 14.5023 2.58794C14.4019 2.34289 14.2538 2.12022 14.0666 1.93286Z" fill="#1455AC"/>
<path d="M8.99332 4.17969L3.39999 9.77302C3.34984 9.82457 3.3072 9.88292 3.27332 9.94635L1.41999 13.6864C1.36622 13.7873 1.33933 13.9004 1.3419 14.0147C1.34448 14.1291 1.37643 14.2409 1.43468 14.3393C1.49294 14.4377 1.57554 14.5195 1.67454 14.5768C1.77354 14.6341 1.88562 14.6649 1.99999 14.6664C2.10157 14.6668 2.2019 14.644 2.29332 14.5997L6.03332 12.7464C6.09675 12.7125 6.1551 12.6698 6.20665 12.6197L11.8 7.02635L8.99332 4.17969Z" fill="#1455AC"/>
<path d="M14 14.6663H7.99998C7.82317 14.6663 7.6536 14.5961 7.52858 14.4711C7.40355 14.3461 7.33331 14.1765 7.33331 13.9997C7.33331 13.8229 7.40355 13.6533 7.52858 13.5283C7.6536 13.4032 7.82317 13.333 7.99998 13.333H14C14.1768 13.333 14.3464 13.4032 14.4714 13.5283C14.5964 13.6533 14.6666 13.8229 14.6666 13.9997C14.6666 14.1765 14.5964 14.3461 14.4714 14.4711C14.3464 14.5961 14.1768 14.6663 14 14.6663Z" fill="#1455AC"/>
</svg>
